<?xml version="1.0" encoding="utf-8"?>
<!-- Generator: Adobe Illustrator 19.0.0, SVG Export Plug-In . SVG Version: 6.00 Build 0)  -->
<svg version="1.1" id="Laag_1" xmlns="http://www.w3.org/2000/svg" xmlns:xlink="http://www.w3.org/1999/xlink" x="0px" y="0px"
	 viewBox="0 0 372.3 317.5" style="enable-background:new 0 0 372.3 317.5;" xml:space="preserve">
<style type="text/css">
	.st0{fill-rule:evenodd;clip-rule:evenodd;fill:#FFFFFF;}
	.st1{fill-rule:evenodd;clip-rule:evenodd;fill:#595858;}
	.st2{fill-rule:evenodd;clip-rule:evenodd;fill:#56C2EA;}
	.st3{fill-rule:evenodd;clip-rule:evenodd;fill:#BD4190;}
	.st4{fill-rule:evenodd;clip-rule:evenodd;fill:#4A4A4A;}
	.st5{fill:#585757;}
	.st6{fill:#FFFFFF;}
	.st7{fill-rule:evenodd;clip-rule:evenodd;fill:#454545;}
</style>
<g>
	<g>
		<path class="st0" d="M327,211.3c-2.5,0-5.2-0.2-7.9-0.5c-1-0.1-1.9-0.7-2.5-1.6s-0.6-2-0.2-2.9c6.7-15.5,20.9-24.8,38.1-24.8
			c3.8,0,7.7,0.5,11.4,1.4c1,0.3,1.8,0.9,2.2,1.8c0.4,0.9,0.4,2-0.1,2.9c-4.6,9-11.4,15.5-20.3,19.4
			C341.3,209.9,334.3,211.3,327,211.3L327,211.3z"/>
		<path class="st0" d="M319.5,207.5c9.3,1.2,18.3,0.3,26.9-3.5c8.4-3.7,14.5-9.7,18.7-17.9C347.7,181.6,327.9,188.3,319.5,207.5z"/>
		<path class="st0" d="M91.6,310.9c-1.8,0-3.3-1.5-3.3-3.3v-24.2H72.4c-1.8,0-3.3-1.5-3.3-3.3v-43.2c-2.2-1.2-4.4-2.5-6.4-4.2
			c-2.4,0-4.7,0-7.1,0l-12.3,0c-5,0-8.9,0-12.5-0.1c-1,0-1.9-0.5-2.5-1.2c-0.6-0.7-0.9-1.7-0.7-2.6c0.6-3.6,3.1-4.7,4.2-5.2l0.3-0.1
			c3.3-1.7,5.8-3.8,7.7-6.5c-2.8-0.1-5.3-1.6-7-4.1c-2.2-3.4-2.8-7.2-3.1-10.4c-1-8.7-0.2-17.3,0.6-24.5c0.1-0.5,0.1-1,0.1-1.5
			c0-0.4,0-0.8,0.1-1.2c0.3-4.2,2-7.2,5.2-8.9c-4.2-4.7-8.4-9.4-12.6-14.1c-4.7-5.2-9.3-10.4-14-15.6l-2.8-3.1
			c-0.2-0.2-0.4-0.4-0.6-0.7l-0.3-0.3c-0.8-1-1-2.4-0.4-3.5c0.6-1.1,1.7-1.8,3-1.8c0,0,44.6,1.3,44.6,1.3c-0.6-0.8-1.3-1.7-1.8-2.6
			c-4.4-7.2-6.3-14.9-5.6-23.7c0.1-1,0.6-2,1.5-2.5c0.5-0.3,1.2-0.5,1.8-0.5c0.4,0,0.8,0.1,1.2,0.2c9.8,3.6,16.9,9.1,21.6,16.5
			c0.4-1.6,0.8-3.2,1.2-4.9c0,0-0.1-0.1-0.1-0.1c-9.8-12.3-14.9-33-3-49.2c0.6-0.8,1.5-1.3,2.6-1.4c0,0,0.1,0,0.1,0
			c1,0,1.9,0.4,2.5,1.2c5.3,6.3,8.6,12.7,10,19.5c1-1.9,2.1-3.8,3.2-5.6c0.3-0.5,0.6-1,0.9-1.5c-7-13.1-7-25,0.2-36.3
			c0.5-0.8,1.3-1.3,2.2-1.5c0.2,0,0.4-0.1,0.6-0.1c0.7,0,1.4,0.2,1.9,0.6c4.3,3.1,7.6,9.6,9,17.2c0.2-0.3,0.4-0.5,0.5-0.6
			c3.3-3.7,6.3-6.2,9.5-8.1c0.5-0.3,1-0.7,1.5-1.2c1-0.9,2.3-2,4.1-2.7c0.4-0.1,0.7-0.2,1.1-0.2c0.4,0,0.9,0.1,1.3,0.3
			c3.2-1,6.3-1.5,9.5-1.5c2.9,0,5.9,0.4,8.8,1.3c0.3-0.3,0.7-0.6,1-0.9c1.7-1.5,3.5-3,5.7-4.2c5.1-2.8,9.4-4.1,13.7-4.1l1.1,0
			c6.5,0,12.2-2.5,17.9-8c4-3.9,9.1-8.2,15.7-10.7c3.9-1.5,8-2.3,12.4-2.5c4.3-0.2,8.3-0.3,12.1-0.3c11.9,0,22.3,1.1,31.9,3.4
			c8.1,1.9,16.1,5.1,23.9,9.4c0-0.6,0-1.3,0.1-2c0.2-1.5,1.5-2.7,3-2.8c0.3,0,0.5,0,0.8,0c4,0,8.5,2.5,12.5,7.1
			c4.3,4.8,8.9,13,8,20.5c0,0.3-0.1,0.7-0.3,1c0.7,0.5,1.5,1,2.2,1.6c1.5-3.9,3.4-7.2,5.8-10.2c0.3-0.4,0.7-0.8,1-1.1
			c0.7-0.7,1.4-0.9,1.7-1c0.3-0.1,0.7-0.1,1-0.1c1.1,0,2.2,0.5,2.8,1.4c2.6,3.7,4.3,7.9,5.1,12.6c0.9,5.1,0.2,9.8-0.7,13.6
			c1.7,1.7,3.2,3.5,4.7,5.3c1.5-2.7,3.3-5.3,5.6-7.7c0.6-0.6,1.5-1,2.4-1c0.1,0,0.2,0,0.3,0c1,0.1,1.9,0.6,2.4,1.4
			c3,4.2,5,8.8,6.1,14.2c1.4,6.6,0.5,12.8-0.6,17.7c1.7,3.1,3.3,6.5,4.6,10.3c2.7-1.7,5.5-3.2,8.7-4.3c0.2-0.1,0.5-0.2,1-0.3
			c0.3-0.1,0.5-0.1,0.8-0.1c0.7,0,1.4,0.2,1.9,0.6c0.8,0.6,1.3,1.4,1.4,2.4c0.8,8.5-1,16.4-5.5,23.5c-0.7,1.1-1.5,2.2-2.3,3.2
			c-0.1,0.2-0.2,0.3-0.3,0.5c0.5,3.9,0.6,7.7,0.6,11c2.9-1.4,5.8-2.6,9-3.4c0.6-0.2,1.3-0.3,2.1-0.3c0.5,0,1,0.1,1.5,0.2
			c1.5,0.4,2.5,1.8,2.5,3.3c-0.2,6.1-1.5,11.8-3.9,16.9c-3.9,8.2-10.1,14.7-19,19.9c-0.7,0.4-1.4,0.8-2.1,1.3c0,0,0,0,0,0
			c-0.6,1.6-1.4,2.8-2.1,4c-0.3,0.4-0.6,0.8-0.8,1.3c-3.3,5.5-6.7,10.3-10.4,14.8l-0.2,0.3c-0.3,0.4-0.8,1.1-1.6,1.6
			c-1.4,3.2-3.1,6.8-4.9,10.3h0.5c1.4,0,2.6,0.8,3.1,2c4.8-1.4,9.3-2.1,13.7-2.1l0.7,0c4.4,0,8.7,0.5,13,1.6c1,0.2,1.8,0.9,2.2,1.8
			c0.4,0.9,0.4,2-0.1,2.9c-6.4,12.4-16.3,20.6-29.3,24.4v39c0,1.8-1.5,3.3-3.3,3.3h-15.9v24.4c0,1.8-1.5,3.3-3.3,3.3H91.6z"/>
		<path class="st0" d="M319.7,216.7v-3.2h-6c3-5.2,5.5-10.7,7.9-16.1c0.9-0.1,1.3-1,1.8-1.5c3.8-4.5,7.1-9.3,10.1-14.3
			c1.1-1.8,2.5-3.5,3-5.6c0.3,0,0.4-0.2,0.4-0.4c1-0.6,1.9-1.1,2.9-1.7c7.6-4.5,13.8-10.4,17.7-18.5c2.3-4.9,3.5-10.1,3.6-15.6
			c-0.8-0.2-1.4,0-2,0.1c-4.8,1.2-9.1,3.5-13.4,5.8c0.1-1.3,0.2-2.6,0.3-3.9c0.1-4.5,0-9-0.7-13.5c1.1-1.5,2.3-3,3.3-4.6
			c4.1-6.5,5.7-13.7,5-21.5c-0.4,0.1-0.6,0.1-0.8,0.2c-4.2,1.4-7.9,3.8-11.5,6.3c-1.5-5.2-3.5-10.2-6.3-14.9
			c1.4-5.8,2.1-11.6,0.9-17.5c-1-4.6-2.7-8.9-5.5-13c-3.3,3.4-5.4,7.3-7.3,11.3c-0.3-0.3-0.5-0.5-0.8-0.8c-2.6-3.2-5.2-6.5-8.3-9.4
			c1.2-4.6,2-9.3,1.1-14.1c-0.7-4.1-2.2-7.9-4.6-11.3c-0.2,0.1-0.4,0.1-0.5,0.2c-0.3,0.3-0.6,0.6-0.9,1c-3.3,4-5.3,8.6-6.6,13.5
			c-8.1-6.4-16.9-11.7-26.6-15.2c-3-1-6-1.9-9-2.8c2.7-0.3,5.4-0.9,8.1-2.1c-0.5-0.7-0.9-1.3-1.4-1.9c2.1,0,4.1,0.9,6.2,0.7
			c-0.4-1.1-0.8-2.2-1.2-3.2c-0.1,0-0.1-0.1-0.2-0.1c0.1,0,0.1,0.1,0.2,0.1c0.4,1.1,0.8,2.2,1.2,3.2c3.2,6.8,8.5,11,15.8,12.8
			c1.1-9.8-9.9-24.6-17.8-23.9c-0.4,2.5,0.6,4.9,0.6,7.4c0,0,0,0,0,0c0,0,0,0,0,0c-1,0-1.7-0.7-2.5-1.2c-8.2-5-16.9-8.7-26.2-10.9
			c-14.2-3.3-28.6-3.7-43.1-2.9c-3.9,0.2-7.7,0.9-11.4,2.3c-5.7,2.1-10.3,5.8-14.6,10c-5.8,5.6-12.5,9.1-20.9,8.9
			c-4.5-0.1-8.6,1.5-12.5,3.7c-2.9,1.6-5.1,3.9-7.6,5.9c-6.8-2.5-13.6-2.2-20.4,0.5c-0.1-0.1-0.2-0.2-0.2-0.3
			c0.1-0.2,0.3-0.4,0.4-0.6c-2,0.7-3.2,2.6-5,3.6c-3.3,1.9-6.1,4.5-8.6,7.3c-0.5,0.6-1.2,1.2-0.2,1.9c-1.8,2.1-3.6,4.1-5.5,6.4
			c0.4-10.4-3.1-20.5-8.3-24.2c-7.4,11.8-5.8,23.3,0.8,34.6c-1.9,3.4-3.9,6.6-5.7,10c-1.8,3.3-3.4,6.7-5,10
			c1.5-11.7-2.2-21.5-9.7-30.4c-10.2,13.9-7,32.7,2.9,45.2c0.6-0.9,1.2-1.7,2.1-2.8c-1.6,6.9-3.2,13.4-4.7,19.9
			c-3.9-11.9-12.2-19.1-23.8-23.4c-0.6,8.1,1.1,15.2,5.1,21.7c1.8,2.9,4.2,5.3,6.4,7.9c-17.2-0.5-34.4-1-52-1.5
			c0.4,0.5,0.6,0.7,0.8,1c5.6,6.2,11.2,12.5,16.8,18.7c5.3,5.9,10.6,11.8,15.9,17.8c-0.5,0.1-1,0.3-1.5,0.4c-4,1-5.8,3.2-6.1,7.3
			c-0.1,1-0.1,1.9-0.2,2.8c-0.9,7.9-1.5,15.8-0.6,23.7c0.3,3.1,0.8,6.2,2.6,9c1.6,2.4,4,3.2,6.7,2.3c1.1-0.3,1.9-1.2,3.1-1.2l0,0
			l0,0l0,0c0,0,0,0,0,0c0,0,0,0,0,0c0.3,0.9-0.3,1.7-0.6,2.5c-2.2,5.4-6.1,9.2-11.2,11.8c-1,0.5-2.3,0.7-2.7,2.9
			c11.1,0.3,22.1,0,33.1,0.2c2.4,2.4,5.4,3.9,8.3,5.5V280h19.2v27.5h208.9v-27.7h19.2v-41.5c13.3-3.3,23.2-11,29.6-23.4
			c-4.3-1-8.6-1.5-12.8-1.5C330.7,213.6,325.1,214.8,319.7,216.7z M314.7,168.4c-2.6-5-5.9-9.3-10.2-12.9
			C308.8,159,312.1,163.4,314.7,168.4c0.5-4.1,1-8.2,1-12.4c1.6,0.9,3.2,1.7,4.8,2.6c-0.3,6.5-1,12.9-2.6,19.2
			C317.1,174.6,316,171.5,314.7,168.4z M281.2,228.1v3.8h-14.4c3.4,0,6.2,0,8,0C276.8,230.8,279.3,229.3,281.2,228.1z M325.6,153.3
			c-1.1-5.6-3-10.9-5.9-16c-0.1-0.2-0.2-0.4-0.3-0.7c0.1,0.2,0.2,0.4,0.3,0.7C322.5,142.3,324.5,147.7,325.6,153.3z M316.6,121.4
			c0.9,4.2,1.7,8.4,2.6,12.6c0.2,0.9,0.3,1.7,0.2,2.6c0,0,0,0,0,0l0,0c-2.1-2.4-3.9-5-6.2-7.2c0-0.2,0-0.4-0.3-0.4
			c-0.1-2.9-1.3-5.5-2-8.2c-0.2-0.8-0.5-1.5-0.7-2.3C312.4,119.5,314.5,120.5,316.6,121.4z M101,109.3c1.4-1.5,2.4-3.3,3.1-5.2
			c3.5-1.1,7.2-1.3,10.8-1.7c5-0.5,10-1.1,15-0.2c1.6,0.3,3,0.9,4.3,1.8c3.9,2.7,4.4,7,1.2,10.6c-2.8,3.2-6.5,4.7-10.5,5.4
			c-8,1.3-14.7-1.3-20.3-7C103.3,111.7,102.2,110.5,101,109.3c-0.8,0.3-0.9,1-1.1,1.6C100.1,110.3,100.2,109.6,101,109.3z
			 M93.2,75.1c0.4,0.2,0.7,0.4,1,0.7c1.4-1.7,2.2-3.7,3.3-5.5c0,1.8,1,2.5,2.8,2.4c0.7-0.1,1.5,0,2.2,0c0,0,0,0,0,0c0,0,0,0,0,0l0,0
			c0,0,0,0,0,0c-2.6,2-5.5,3.7-7.8,6.1c-3.4,3.4-6.3,7.1-8.4,11.5c3,0.7,5.8,0.6,8.6,0.5c0.7,2.3,1.4,4.6,2,6.9
			c-3.8,1.2-7.3,3-10.4,5.5c-3.1,2.4-5.6,5.4-8.1,8.4C81.3,98.7,86.3,86.6,93.2,75.1z M77,105.3c0,0.1,0,0.2,0.1,0.3
			c0,0-0.1,0-0.1,0c0,0,0.1,0,0.1,0C77,105.4,77,105.4,77,105.3z M75.8,123c9.6-0.6,17.6-4.2,23.7-11.6c0,1-0.4,1.8-0.7,2.7
			c-1.2,3.2-1.8,6.6-2,10c-4.2,1.9-7.9,4.7-10.9,8.2c-3.7-0.1-7.4-0.2-11.1-0.4C75.2,129.1,75.5,126.1,75.8,123z M71.5,167.3
			c-1.1-4.3-2.8-8.4-5.6-11.9c-0.3,0.2-0.7,0.3-0.9,0.6c0.2-0.3,0.6-0.4,0.9-0.6c1.4-2,3-3.7,4.9-5.2l0,0c0,5.7,0.6,11.4,1.4,17.1
			C71.9,167.3,71.7,167.3,71.5,167.3z M74.4,146.3c-0.7,0.6-1.4,1.2-2,1.8C73,147.4,73.7,146.8,74.4,146.3c1.9-2.4,4-4.6,6.2-6.6
			l0,0c0,0,0,0,0,0c-1,2.7-2.1,5.3-3,8c-1.2,3.9-1.9,7.9-2.1,12C74.9,155.3,74.6,150.8,74.4,146.3z M47.1,211.2
			c1.3-0.4,2.7-0.5,4.1-0.6l0,0C49.8,210.6,48.4,210.8,47.1,211.2z M51.2,210.6c4.5,0,8.8,1.2,13,2.8c-3.4,0.3-6.9,0.4-10.2,1.2
			c-0.5,0.1-1,0.2-1.4,0.6C51.7,213.7,51.6,212.1,51.2,210.6z M269.9,132.2c-1.5-12.6-6.3-23.7-14.1-33.7
			c-5.9-7.5-12.7-14.1-20.9-19c-4-2.4-8.4-4-12.8-6c-2.7,3.1-5.3,6.1-8.1,9.2c1.5,2.2,3,4.4,4.6,6.6c4,5.4,6.3,11.6,7.7,18.1
			c1.3,5.9,1.4,11.9,1,17.8c-0.6,9.2-3,18-6.6,26.6c-4.4,10.4-10.9,19.5-17.8,28.4c-7.7,9.9-15.7,19.5-22.6,30.1
			c-4.5,7-8.7,14.1-12.3,21.6c0.1,0,0.3,0,0.6,0h-5.8c3.5-7.7,7.6-15,12.1-22.2c5.2-8.2,10.9-16.1,17-23.6
			c7-8.5,13.6-17.4,19.2-26.9c4.4-7.4,8.3-15.1,9.8-23.7c1.1-6.5,1.6-13.1,1.2-19.7c-0.5-8.4-2.5-16.4-7.5-23.5
			c-3.7-5.2-9-5.1-13.7-3c-2,0.9-2.2,3.1-2.3,5c-0.1,4,0,8-0.4,12.1c-0.8,7.7-3.2,14.6-8.3,20.5c-8.8,10.2-19.3,18.4-30.6,25.6
			c-7.2,4.5-13.9,9.6-20.4,14.9c-5.2,4.2-10.2,8.6-14.8,13.4c-2.1,2.1-4,4.3-5.9,6.5c6.4,15.8,4.6,30.8-5.6,44.6h-1.7v-18.5h-9
			c-0.2-1.6-0.3-3.2-0.4-4.8c3.5-9.5,7.8-18.6,13.7-26.9c3.4-5,7.2-9.7,12.3-13.1c-0.1-1.7-1.5-2.6-2.4-3.4c-3.9-3.8-8.6-5.8-14-6.2
			c-2.5-0.2-5-0.1-7.5-0.3c-0.3-2.1-0.8-4.1-1.7-6.3c-3.8,2.2-6.8,5-9.5,8.2l0,0c-0.1,0.1-0.2,0.2-0.3,0.3
			c-5.3,1.5-10.4,3.5-15.6,5.4c-0.2-1.8-0.8-3.6-0.7-5.5c6.5-2,12.2-5.2,16.9-10c3-3.1,4.9-6.9,6.8-10.6c1.2,2.4,1.8,5.2,3.7,7.3
			c1.8-0.4,3-1.5,4.3-2.6c2.8-2.2,5.6-4.1,9.4-4.7c4.8-0.8,9.7-1.1,14.6-1.3c6.8-0.4,13.6-0.7,20.5-1.2c5.5-0.4,11.1-0.9,16.5-2.3
			c9.3-2.3,16.3-7.6,20.6-16.2c2.4-4.9,3.7-10.2,4.1-15.7c0.3-3.8,0-7.6-0.4-11.3c-0.3-2.5-1.4-4.8-1.9-7.2c0.9-0.5,1.7-0.6,2.6-0.6
			c2-0.1,4,0,6-0.4c7.9-1.7,15.7-7.3,16.9-16.2c0.9-6.2-0.7-9.5-7-10.6c-3-0.6-6-0.8-9-0.8c-4.2-0.1-8.5,0.1-12.8,0.2
			c-7.1,0.2-14.2,0.3-21.2,0.9c-3.4,0.3-7.1,0.4-9.9,2.8c-1.2,1-2.5,1.8-3.9,2.5c-1.9,0.9-5.3,0.3-6.3-1.4c-0.7-1.1-1.7-1.6-2.8-2
			c-2.6-0.9-5.2-1.1-7.9-1.2c-4.2-0.2-8.4-0.2-12.6-0.4c3.3-1.3,6.5-2.8,9.4-5c0.8-0.6,1.3-1.7,2.5-2c0.7,0,1.5,0.1,2.3,0.1
			c19,0,37.9-0.1,56.9,0.1c3.6,0,6.1-1.4,8.6-3.6c6-5.4,12.8-9.7,20.2-12.9c6.2-2.7,12.7-4.2,19.2-5.5c1-0.2,2.1-0.1,3.2-0.2
			c3.1,2.1,6.2,4.3,9.7,5.7c-9.5-0.3-18.7,1.1-27.5,4.7c-6.9,2.8-13.2,6.8-20,10.3c0.5,0.5,0.9,0.6,1.5,0.7c5,0.2,10,0.5,15,0.8
			c12,0.6,23.7,2.3,35,6.7c7.1,2.8,13.8,6.5,19.9,11.2c0.4,0.3,0.9,0.5,1.3,0.8c-0.1,0.2-0.4,0.5-0.3,0.6c1.7,3.3,3.3,6.6,5.7,9.5
			c4.1,4.8,9,8.3,14.9,10.2c1.8,2.5,3.5,4.9,5.3,7.4c0.2,0.2,0.2,0.6,0.3,0.8c-2.4-0.8-4.9-1.2-7.4-1.6c-2.2-3.8-5.2-7-8.1-10.1
			c-11.6-12.1-25-21.2-41-26.6c-7.7-2.6-15.6-4-23.8-3.6c-3.4,0.1-4.2,1.2-3.4,4.5c0.4,1.7,0.8,3.4,0.8,5.2c0.1,2.9,1.1,3.8,3.8,4.4
			c3.9,0.8,7.2,2.9,10.6,4.9c5.6,3.4,10.9,7.3,15.6,11.9c5,5,9.2,10.7,12.7,16.9c3.5,6.2,6.2,12.8,7.8,19.7
			c2.5,10.6,2.7,21.3-0.7,31.7c-1.9,6.1-4.9,11.8-7.9,17.4c-4,7.2-8.7,13.9-13.8,20.4c-2.5,3.3-5.2,6.4-7.9,9.5
			c-3.4,4.1-6.5,8.5-9.3,13c-3.2,5.1-5.3,10.6-7.1,16.3c0.3,0,0.8,0,1.2,0h-6.1c2.8-11.2,8.4-20.9,15.5-30
			c6.9-8.9,14.3-17.4,20.3-27.1c4.7-7.5,8.7-15.3,10.9-23.9C270,144.8,270.6,138.6,269.9,132.2z M300,213.6c0.1-1.8,0.3-3.6,0.5-5.4
			c2.7-3.6,4.5-7.8,6.4-11.9c0.3-0.7,0.7-1.5,1-2.2c1.4,1.3,2.9,2.6,4.3,3.9c-0.7,2-1.4,3.9-2.1,6c-0.3,1-0.5,2,0.8,2.4
			c-1.1,2.5-2.8,4.8-4.2,7.2H300z"/>
		<path class="st0" d="M137.9,39.2c-4.2,0-8.3-0.9-12.1-2.6c-0.9-0.4-1.6-1.2-1.9-2.2c-0.2-1,0-2,0.6-2.8
			c7.2-9.2,17.6-14.6,27.9-14.6c3.8,0,7.4,0.7,10.7,2.1c0.9,0.4,1.6,1.1,1.9,2c0.3,0.9,0.2,1.9-0.3,2.7
			C158.7,33.5,148.7,39.2,137.9,39.2C137.9,39.2,137.9,39.2,137.9,39.2z"/>
		<path class="st0" d="M161.9,22.1c-11.1-4.7-25.5-0.4-34.7,11.5C139.5,39.2,154.3,34.4,161.9,22.1z"/>
		<path class="st0" d="M106.5,48.4c-1.6,0-3-1.2-3.3-2.8c-1.1-6.5,2.5-13.9,6.3-18.6c4.3-5.5,9.6-8.8,14.4-9.1c0.1,0,0.1,0,0.2,0
			c1.6,0,3.1,1.2,3.3,2.9c0.8,6-1.4,13-5.8,18.6c-4.1,5.2-9.5,8.5-14.8,9C106.7,48.4,106.6,48.4,106.5,48.4z"/>
		<path class="st0" d="M124.2,21.2c-8.8,0.6-19.2,14.7-17.7,23.9C116.3,44.1,125.6,31.6,124.2,21.2z"/>
		<path class="st0" d="M119.2,47.2c-1.5,0-2.9-1.1-3.2-2.6c-0.3-1.1,0-2.2,0.7-3.1c0.6-0.8,1.8-1.3,2.8-1.3c0.1,0,0.3,0,0.4,0
			c1.8,0.2,3.1,1.7,3,3.5c-0.1,1.8-1.5,3.2-3.3,3.4C119.4,47.2,119.3,47.2,119.2,47.2z"/>
		<path class="st0" d="M119.6,43.6c-0.2,0-0.4,0-0.3,0.3C119.4,43.9,119.5,43.8,119.6,43.6z"/>
		<path class="st0" d="M119.1,47.3c-0.9,0-1.9-0.4-2.5-1.1c-0.9-1-1.1-2.5-0.4-3.7c0-0.1,0.1-0.2,0.2-0.3c0.3-0.5,0.8-0.9,1.3-1.2
			l0,0c0.4-0.2,0.9-0.3,1.3-0.4c0.1,0,0.1,0,0.2,0c1.5,0,2.8,1,3.2,2.5c0.1,0.4,0.1,0.7,0.1,1.1c-0.1,1.2-0.8,2.3-1.9,2.8
			c-0.1,0.1-0.3,0.1-0.4,0.2C119.9,47.2,119.5,47.3,119.1,47.3z"/>
		<path class="st0" d="M119.2,43.9C119.2,43.9,119.2,43.9,119.2,43.9C119.2,43.9,119.1,44,119.2,43.9C119.2,44,119.2,44,119.2,43.9
			C119.2,43.9,119.2,43.9,119.2,43.9z"/>
		<path class="st0" d="M119.6,46.8c-1.5,0-2.8-1-3.2-2.4c-0.3-1-0.1-2.3,0.5-3.1c0.6-0.8,1.7-1.4,2.8-1.4c0.1,0,0.2,0,0.3,0
			c1.2,0.1,2.2,0.8,2.7,1.9c0.4,0.9,0.4,2.2-0.1,3.1c-0.5,0.9-1.6,1.6-2.6,1.8C119.9,46.8,119.8,46.8,119.6,46.8z"/>
		<path class="st0" d="M119.8,43.3c-0.2,0-0.2,0.1-0.2,0.3C119.7,43.5,119.9,43.5,119.8,43.3z"/>
		<path class="st0" d="M119.2,46.9c-1.7-0.2-2.9-1.6-2.9-3.3c0-0.4,0.1-0.7,0.2-1.1c0.4-1.1,1.3-2,2.5-2.2c0.2,0,0.4-0.1,0.7-0.1
			c1.5,0,2.9,1,3.2,2.6c0,0.1,0.1,0.3,0.1,0.4c0.1,0.9-0.2,1.8-0.7,2.4c-0.6,0.7-1.4,1.1-2.2,1.2c-0.1,0-0.2,0-0.4,0
			C119.4,46.9,119.3,46.9,119.2,46.9z"/>
		<path class="st0" d="M119.6,43.5C119.6,43.5,119.6,43.5,119.6,43.5C119.6,43.6,119.6,43.6,119.6,43.5
			C119.6,43.6,119.6,43.6,119.6,43.5C119.6,43.6,119.6,43.6,119.6,43.5z"/>
	</g>
	<g>
		<path class="st1" d="M302.3,53.7c1.3-5,3.3-9.6,6.6-13.5c0.3-0.3,0.6-0.7,0.9-1c0.1-0.1,0.2-0.1,0.5-0.2c2.4,3.4,3.8,7.2,4.6,11.3
			c0.9,4.8,0.1,9.5-1.1,14.1c-1.2,3.2-2.5,6.3-4.3,9.2c4.2,6.5,7.8,13.2,11,20.3c0-1.3-0.2-2.6-0.2-3.8c-0.4-5.4,0.8-10.5,2.6-15.5
			c2-4,4-7.9,7.3-11.3c2.8,4,4.6,8.3,5.5,13c1.2,5.9,0.5,11.7-0.9,17.5c-1.9,5.2-4,10.3-7.6,14.8c-0.8-1.2-1.5-2.2-2.2-3.3
			c1.8,6.6,3.3,13.3,4.7,20.1c1.1-3.1,2.5-6,4.2-8.7c2-3.1,4.7-5.4,7.2-8c3.6-2.5,7.3-4.9,11.5-6.3c0.2-0.1,0.5-0.1,0.8-0.2
			c0.7,7.8-0.9,14.9-5,21.5c-1,1.6-2.2,3.1-3.3,4.6c-0.9,0.9-1.9,1.8-2.8,2.8c-3.3,3.3-7.2,5.8-11.3,8.1c0.3,9.9,0,19.7-1.6,29.7
			c0.8-0.5,0.8-1.1,0.9-1.6c1.3-5.1,3.6-9.6,6.9-13.7c2.4-3,5.4-5.4,8.4-7.8c4.3-2.4,8.6-4.7,13.4-5.8c0.6-0.1,1.2-0.3,2-0.1
			c-0.2,5.4-1.3,10.6-3.6,15.6c-3.9,8.1-10,14-17.7,18.5c-1,0.6-1.9,1.2-2.9,1.7c-0.2,0.1-0.4,0.1-0.4,0.4l0,0
			c-2.6,0.4-4.7,2.2-7.4,2.5c-0.5-2.3,0.5-4.5,0.1-7.1c-0.7,3.1-1.4,5.9-2,8.6c-1.4,6-3.5,11.7-5.6,17.5c-2.4,5.4-5,11-7.9,16.1
			c-2.3,0-4.5,0-6.8,0c1.4-2.3,3-4.7,4.2-7.2c1.4-2.1,2.4-4.5,3.6-6.8c-0.9-0.6-1.6-1.1-2.3-1.6c-1.4-1.3-2.9-2.6-4.3-3.9
			c-11.1-12.3-12.6-26.4-8.1-41.9c6.7,4.1,11.4,9.5,14.9,16.2c1.3,3.1,2.5,6.2,3.2,9.5c0.6,3.5,1.2,7,1.2,10.6
			c3.5-9,5.8-18.2,7.1-27.7c-1.9-0.7-3.8-1.4-5.7-2.1c-1.6-0.9-3.2-1.7-4.8-2.6c-11.9-8.1-16.4-19.7-16-33.9c3.1,0.7,5.6,2,8.1,3.5
			c1.8,1.1,3.4,2.3,5.2,3.4l0,0c0.1,0.1,0.2,0.3,0.3,0.4c2.3,2.2,4.1,4.8,6.2,7.2l0,0c0.1,0.2,0.2,0.4,0.3,0.7
			c3.8,6.7,5.9,14,6.7,21.7c1.4-12,1.4-23.9-0.5-35.9c-3.3-0.3-6.3-1-9.3-1.6c-2.1-1-4.2-2-6.3-2.9c-8-5.3-13-12.7-15.3-22
			c1.3-0.7,2.4,0.1,3.4-0.2c2.5,0.4,5,0.8,7.4,1.6c7.4,2.6,13.2,7.5,17.8,13.8c-3-13-7.9-25.1-14.8-36.6c-0.4,0.2-0.7,0.4-1.4,0.6
			c-3.4-6.7-6.2-13.7-12.2-18.8c-6,1.8-12.3,2.1-18.5-0.4c-6-2.4-10.8-6.4-14.4-12c7.2-2.6,14.1-2.3,20.9,0.6
			c0.2-0.6-0.5-0.7-0.1-1.2c4.6,4.1,10.4,6.7,14,12.1c0.2,0.4-0.7,0.3-0.4,1c1.7,2,3.6,4.2,5.6,6.5C301.8,60.1,302,56.9,302.3,53.7z
			"/>
		<path class="st2" d="M115.1,181.7c-5.8,8.3-10.2,17.4-13.7,27c-1,1.6-2,3.2-2.9,4.9c-3.7,4.4-8.5,6-14.1,5.6
			c-3.9-0.3-7.5-1.5-11.3-2.6c-3-1.1-5.9-2.1-8.9-3.1c-4.2-1.6-8.5-2.7-13-2.8c-1.9,0.1-3.7,0.3-5.5,1c-0.2,0-0.4,0.1-0.4,0.4l0,0
			c-1.2,0-2,0.9-3.1,1.2c-2.8,0.8-5.1,0.1-6.7-2.3c-1.8-2.7-2.3-5.9-2.6-9c-0.9-7.9-0.3-15.9,0.6-23.7c0.1-0.9,0.1-1.9,0.2-2.8
			c0.3-4.1,2.1-6.3,6.1-7.3c0.5-0.1,1-0.3,1.5-0.4c4.3-0.6,8.6-0.3,12.9-0.1c1.8,0.1,3.5,0.2,5.3,0.3c4,0.2,8,0.3,12-0.4
			c0.2,0,0.4,0,0.6,0c1.5-0.3,2.9-0.5,4.3-1.1c5.2-1.9,10.3-3.9,15.6-5.4c0.1-0.1,0.2-0.2,0.3-0.3l0,0c3.7-0.7,7.5-1.3,11.2-1.9
			c2.5,0.2,5,0.1,7.5,0.3c5.4,0.5,10.1,2.5,14,6.2c0.9,0.9,2.3,1.8,2.4,3.4C122.3,172,118.5,176.7,115.1,181.7z"/>
		<path class="st2" d="M279.6,32.5c-2.1,0.3-4.1-0.7-6.2-0.7c-6.3-6.4-13.6-11.2-23-11.5c-3.6-0.1-7.1,0.3-10.5,1.8
			c0.4,1.1,1.2,1.9,1.8,2.8c1,1.4,2.4,2.3,3.2,3.9c-1.1,0.1-2.2,0-3.2,0.2c-6.5,1.3-13,2.8-19.2,5.5c-7.4,3.3-14.1,7.5-20.2,12.9
			c-2.5,2.2-4.9,3.6-8.6,3.6c-19-0.2-37.9-0.1-56.9-0.1c-0.8,0-1.5-0.1-2.3-0.1c1.7-2,3.7-3.6,4.7-6.1c2.5-2,4.7-4.3,7.6-5.9
			c3.9-2.2,8.1-3.8,12.5-3.7c8.4,0.2,15.1-3.3,20.9-8.9c4.3-4.1,8.9-7.8,14.6-10c3.7-1.4,7.5-2.1,11.4-2.3
			c14.5-0.8,28.9-0.4,43.1,2.9c9.3,2.2,18,6,26.2,10.9c0.8,0.5,1.5,1.2,2.5,1.2l0,0c-0.1,0.3,0.1,0.4,0.3,0.5
			C278.9,30.3,279.3,31.4,279.6,32.5z"/>
		<path class="st1" d="M139.4,44.5c-1,2.5-3,4.2-4.7,6.1c-1.1,0.3-1.6,1.3-2.5,2c-2.9,2.2-6.1,3.6-9.4,5c-3.7,0.2-7.3,0.3-11,0.5
			c-1.8-0.3-3.7-0.7-5.6-1c-1,1.3-2,2.6-3,3.9c-2.5,2.8-5.1,5.4-5.6,9.4c-1.1,1.8-1.9,3.8-3.3,5.5c-0.4-0.2-0.7-0.5-1-0.7
			c-6.9,11.5-11.9,23.5-14.8,36.4c2.5-3,5-6,8.1-8.4c3.2-2.5,6.6-4.3,10.4-5.5c0.4,1.1,0.8,2.2,1.2,3.3c1.3,3.3,2.4,3.9,5.9,3.1
			c-0.7,1.9-1.7,3.7-3.1,5.2c-1,0.4-0.8,1.5-1.4,2.2c-6.2,7.3-14.1,10.9-23.7,11.6c-0.3,3.1-0.6,6-0.9,9c-5-0.1-10-0.3-15-0.4
			c-2.2-2.5-4.6-5-6.4-7.9c-4.1-6.6-5.7-13.7-5.1-21.7c11.6,4.3,19.9,11.5,23.8,23.4c1.5-6.5,3.1-13,4.7-19.9
			c-0.9,1.2-1.5,2-2.1,2.8C64.9,96,61.7,77.2,71.9,63.2c7.4,8.8,11.2,18.7,9.7,30.4c1.7-3.4,3.3-6.8,5-10c1.8-3.4,3.8-6.7,5.7-10
			c-6.6-11.3-8.2-22.8-0.8-34.6c5.2,3.7,8.7,13.8,8.3,24.2c2-2.3,3.7-4.3,5.5-6.4c-1-0.7-0.3-1.3,0.2-1.9c2.5-2.9,5.3-5.4,8.6-7.3
			c1.8-1.1,3-3,5.1-3.7l0,0c-0.1,0.2-0.3,0.5-0.4,0.7c-0.1,0.1-0.3,0.1-0.2,0.4c0.2,0,0.3,0,0.5-0.1C125.8,42.3,132.6,42,139.4,44.5
			z M78.3,112.2c0,0-0.1-0.1-0.1-0.1c0,0-0.1,0.1-0.1,0.1c0,0,0.1,0.1,0.1,0.1C78.2,112.3,78.3,112.3,78.3,112.2z M77,105.3
			c0,0.1,0,0.2-0.1,0.3c0,0,0.1,0,0.1,0C77.1,105.4,77.1,105.4,77,105.3z"/>
		<path class="st2" d="M302.3,53.7c-0.4,3.2-0.5,6.4-0.1,9.9c-2-2.3-3.8-4.5-5.6-6.5c-0.3-0.7,0.6-0.6,0.4-1c-3.6-5.4-9.4-8-14-12.1
			c-0.4,0.5,0.3,0.6,0.1,1.2c-6.8-2.8-13.7-3.2-20.9-0.6c3.6,5.6,8.3,9.6,14.4,12c6.2,2.5,12.4,2.2,18.5,0.4
			c6,5.1,8.7,12.2,12.2,18.8c0.6-0.3,1-0.5,1.4-0.6c6.9,11.5,11.9,23.6,14.8,36.6c-4.6-6.4-10.3-11.2-17.8-13.8
			c-0.1-0.3-0.2-0.6-0.3-0.8c-1.7-2.5-3.5-4.9-5.3-7.4c5,1.2,10.1,1.6,15.5,0.6c-3.1-5.8-7-10.7-12.1-14.6
			c-7.1-5.4-15.1-7.2-23.8-6.4c-0.5-0.2-0.9-0.5-1.3-0.8c-6.1-4.7-12.8-8.3-19.9-11.2c-11.2-4.4-23-6.1-35-6.7c-5-0.3-10-0.5-15-0.8
			c-0.6,0-1-0.2-1.5-0.7c6.8-3.5,13.1-7.5,20-10.3c8.8-3.6,18-5,27.5-4.7c4,1,7.9,2,12.1,1.3c3,0.9,6,1.7,9,2.8
			C285.5,42,294.2,47.3,302.3,53.7z"/>
		<path class="st3" d="M59.9,131.7c5,0.1,10,0.3,15,0.4c3.7,0.1,7.4,0.2,11.1,0.4c0.3,0,0.6,0.1,1.2,0.1c-2.1,2.4-4.1,4.5-6,6.7
			c-0.2,0.1-0.3,0.3-0.5,0.4l0,0c-2.3,2-4.3,4.2-6.2,6.6c-1.4,1.2-2.7,2.4-3.7,4c-1.8,1.5-3.5,3.2-4.9,5.2c-0.3,0.2-0.7,0.3-0.9,0.6
			c-3.6,3.8-7.2,7.6-10.7,11.5c-4.3-0.2-8.6-0.4-12.9,0.1c-5.3-5.9-10.6-11.9-15.9-17.8c-5.6-6.3-11.2-12.5-16.8-18.7
			c-0.2-0.2-0.4-0.4-0.8-1C25.5,130.7,42.7,131.2,59.9,131.7z"/>
		<path class="st1" d="M365.2,186.1c-4.2,8.2-10.3,14.2-18.7,17.9c-8.6,3.8-17.6,4.7-26.9,3.5C327.9,188.3,347.7,181.6,365.2,186.1z
			"/>
		<path class="st1" d="M319.4,238.5c0-7.2,0-14.4,0-21.6c5.5-2,11.2-3.2,17.1-3.3c4.3-0.1,8.5,0.4,12.8,1.5
			C342.8,227.5,332.9,235.2,319.4,238.5z"/>
		<path class="st1" d="M127.2,33.6c9.3-11.9,23.7-16.2,34.7-11.5C154.3,34.4,139.6,39.2,127.2,33.6z"/>
		<path class="st1" d="M266.7,35.7c-4.2,0.6-8.1-0.3-12.1-1.3c-3.5-1.4-6.6-3.6-9.7-5.7c-0.7-1.6-2.2-2.5-3.2-3.9
			c-0.6-0.9-1.4-1.6-1.8-2.8c3.4-1.4,6.9-1.9,10.5-1.8c9.4,0.3,16.6,5,23,11.5c0.4,0.6,0.9,1.2,1.4,1.9
			C272.1,34.9,269.4,35.4,266.7,35.7z"/>
		<path class="st3" d="M45.8,211.6c1.7-0.8,3.6-1,5.5-1c0.4,1.5,0.5,3.1,1.4,4.6c2.8,6.9,8.3,10.9,14.9,13.9
			c-0.2,0.2-0.3,0.3-0.3,0.3c-1.1,0-2.1,0-3.2,0c-11-0.2-22,0.1-33.1-0.2c0.4-2.2,1.7-2.4,2.7-2.9c5.1-2.6,9-6.4,11.2-11.8
			c0.3-0.8,0.9-1.6,0.6-2.5l0,0C45.8,212.1,45.8,211.8,45.8,211.6z"/>
		<path class="st2" d="M345.6,145.8c-3,2.5-6,4.8-8.4,7.8c-3.2,4.1-5.6,8.6-6.9,13.7c-0.1,0.5-0.1,1.1-0.9,1.6
			c1.7-9.9,2-19.8,1.6-29.7c4.1-2.3,8-4.8,11.3-8.1c0.9-0.9,1.9-1.8,2.8-2.8c0.7,4.5,0.8,9,0.7,13.5
			C345.9,143.1,345.7,144.5,345.6,145.8z"/>
		<path class="st1" d="M64.1,229.3c1.1,0,2.1,0,3.2,0c0,0,0.1-0.1,0.3-0.3c-6.6-2.9-12.1-7-14.9-13.9c0.4-0.3,0.9-0.5,1.4-0.6
			c3.4-0.7,6.8-0.9,10.2-1.2c3,1.1,5.9,2.1,8.9,3.1c0,6.2,0,12.5,0,18.7C70,233.5,66.6,231.9,64.1,229.3z"/>
		<path class="st1" d="M279.6,32.5c-0.4-1.1-0.8-2.2-1.2-3.2c0-0.2,0-0.5-0.3-0.5l0,0c-0.1-2.5-1-4.9-0.6-7.4
			c7.9-0.7,19,14.1,17.8,23.9C288.1,43.5,282.8,39.3,279.6,32.5z"/>
		<path class="st1" d="M124.2,21.3c1.4,10.4-7.9,22.9-17.7,23.9C105,35.9,115.4,21.8,124.2,21.3z"/>
		<path class="st2" d="M341.1,108.7c-2.5,2.6-5.2,4.9-7.2,8c-1.7,2.7-3.1,5.6-4.2,8.7c-1.4-6.7-2.9-13.4-4.7-20.1
			c0.7,1,1.4,2.1,2.2,3.3c3.6-4.5,5.8-9.6,7.6-14.8C337.6,98.5,339.5,103.5,341.1,108.7z"/>
		<path class="st2" d="M322.8,74.6c-1.8,5-3,10.1-2.6,15.5c0.1,1.3,0.3,2.5,0.2,3.8c-3.2-7-6.8-13.7-11-20.3
			c1.9-2.9,3.2-6.1,4.3-9.2c3.1,2.9,5.6,6.2,8.3,9.4C322.3,74.1,322.5,74.3,322.8,74.6z"/>
		<path class="st2" d="M321.6,197.5c2-5.8,4.2-11.5,5.6-17.5c0.6-2.7,1.2-5.5,2-8.6c0.4,2.6-0.6,4.8-0.1,7.1
			c2.7-0.2,4.8-2.1,7.4-2.5c-0.5,2.1-1.9,3.8-3,5.6c-3,5-6.3,9.8-10.1,14.3C322.8,196.5,322.5,197.4,321.6,197.5z"/>
		<path class="st2" d="M336.4,176c0-0.3,0.2-0.3,0.4-0.4C336.8,175.8,336.7,176,336.4,176z"/>
		<path class="st1" d="M119.6,43.6c0,0.3-0.1,0.4-0.4,0.4l0,0C119.1,43.6,119.3,43.5,119.6,43.6L119.6,43.6z"/>
		<path class="st1" d="M119.6,43.6c-0.1-0.2-0.1-0.3,0.2-0.3C119.9,43.5,119.8,43.5,119.6,43.6L119.6,43.6z"/>
		<path class="st2" d="M221.8,231.9c-15.2,0-51,0-53.8,0c3.6-7.5,7.8-14.7,12.3-21.6c6.9-10.5,14.9-20.2,22.6-30.1
			c6.9-8.9,13.4-17.9,17.8-28.4c3.5-8.5,5.9-17.4,6.6-26.6c0.5-5.9,0.3-11.9-1-17.8c-1.4-6.5-3.7-12.7-7.7-18.1
			c-1.6-2.1-3-4.4-4.6-6.6c2.8-3.2,5.4-6.1,8.1-9.2c4.3,2,8.8,3.6,12.8,6c8.3,4.9,15,11.5,20.9,19c7.8,9.9,12.6,21,14.1,33.7
			c0.7,6.4,0.1,12.6-1.4,18.8c-2.2,8.6-6.2,16.4-10.9,23.9c-6,9.6-13.4,18.2-20.3,27.1C230.2,211,224.6,220.7,221.8,231.9z"/>
		<path class="st2" d="M162.8,231.9c-16.6,0-50,0.1-50.2,0c10.2-13.8,12-28.8,5.6-44.6c2-2.2,3.9-4.4,5.9-6.5
			c4.7-4.8,9.7-9.2,14.8-13.4c6.5-5.3,13.3-10.4,20.4-14.9c11.4-7.1,21.8-15.4,30.6-25.6c5.1-5.9,7.5-12.8,8.3-20.5
			c0.4-4,0.3-8,0.4-12.1c0.1-1.9,0.3-4.2,2.3-5c4.7-2,10-2.2,13.7,3c5,7.1,7,15.1,7.5,23.5c0.4,6.6-0.1,13.2-1.2,19.7
			c-1.5,8.6-5.4,16.3-9.8,23.7c-5.7,9.5-12.2,18.3-19.2,26.9c-6.2,7.5-11.8,15.4-17,23.6C170.3,216.9,166.2,224.3,162.8,231.9z"/>
		<path class="st2" d="M281.3,213.6c0,5,0.1,9.5,0,14.5c-2,1.1-4.5,2.7-6.4,3.8c-8.5,0-40.6,0-48.2,0c1.9-5.7,4-11.2,7.1-16.3
			c2.8-4.5,5.9-8.9,9.3-13c2.7-3.2,5.4-6.3,7.9-9.5c5-6.5,9.8-13.2,13.8-20.4c3.1-5.6,6-11.3,7.9-17.4c3.4-10.5,3.1-21.1,0.7-31.7
			c-1.6-6.9-4.3-13.5-7.8-19.7C262.1,97.6,258,92,252.9,87c-4.7-4.6-10-8.5-15.6-11.9c-3.3-2-6.7-4.1-10.6-4.9
			c-2.7-0.6-3.7-1.5-3.8-4.4c0-1.8-0.3-3.5-0.8-5.2c-0.9-3.3,0-4.4,3.4-4.5c8.2-0.3,16.1,1.1,23.8,3.6c15.9,5.4,29.4,14.5,41,26.6
			c3,3.1,6,6.3,8.1,10.1c-1,0.2-2.1-0.5-3.4,0.2c2.3,9.3,7.3,16.7,15.3,22c0.2,0.8,0.5,1.5,0.7,2.3c0.7,2.7,1.9,5.4,2,8.2
			c-1.7-1.1-3.4-2.3-5.2-3.4c-2.5-1.5-5-2.8-8.1-3.5c-0.4,14.2,4.1,25.8,16,33.9c0,4.1-0.4,8.2-1,12.4c-3.5-6.7-8.2-12.2-14.9-16.2
			c-4.5,15.5-3,29.7,8.1,41.9c-0.3,0.7-0.7,1.5-1,2.2c-1.9,4.1-3.7,8.2-6.4,11.9c-0.2-7.9-1.7-15.6-5.8-22.5
			c-1.6-2.8-3.4-5.5-5.7-7.8c-0.3,0.3-0.4,0.4-0.5,0.5c-0.2,0.3-0.4,0.5-0.5,0.7c-3.6,5.7-6.1,11.7-7.2,18.3
			C279.8,202.8,280.1,208.2,281.3,213.6z"/>
		<path class="st0" d="M101.8,213.5c-1.1,0-2.3,0-3.4,0c1-1.6,2-3.2,2.9-4.9C101.5,210.3,101.7,211.9,101.8,213.5z"/>
		<path class="st2" d="M316.6,121.4c3,0.7,6,1.3,9.3,1.6c1.9,12,1.9,23.9,0.5,35.9c-0.7-7.7-2.9-15-6.7-21.7
			c-0.1-0.2-0.2-0.4-0.3-0.7l0,0c0.1-0.9,0-1.7-0.2-2.6C318.3,129.9,317.5,125.7,316.6,121.4z"/>
		<path class="st2" d="M320.6,158.6c1.9,0.7,3.8,1.4,5.7,2.1c-1.3,9.5-3.6,18.8-7.1,27.7c0-3.6-0.6-7.1-1.2-10.6
			C319.5,171.5,320.3,165.1,320.6,158.6z"/>
		<path class="st2" d="M311,206.4c-1.3-0.5-1.1-1.5-0.8-2.4c0.7-2,1.4-4,2.1-6c0.7,0.5,1.4,1,2.3,1.6
			C313.4,202,312.4,204.3,311,206.4z"/>
		<path class="st0" d="M319.4,136.6c0.1,0.2,0.2,0.4,0.3,0.7C319.6,137.1,319.5,136.9,319.4,136.6z"/>
		<path class="st2" d="M313,129.1c0.3,0,0.3,0.2,0.3,0.4C313.2,129.4,313.1,129.2,313,129.1z"/>
		<path class="st1" d="M99.5,140c-1.9,3.8-3.8,7.5-6.8,10.6c-4.7,4.9-10.4,8-16.9,10c-0.1,1.9,0.5,3.7,0.7,5.5
			c-1.4,0.6-2.8,0.9-4.3,1.1c-0.8-5.7-1.4-11.3-1.4-17.1c1-1.6,2.3-2.8,3.7-4c0.2,4.5,0.5,9,1.1,13.5c0.2-4.1,0.9-8.1,2.1-12
			c0.9-2.7,2-5.4,3-8.1l0,0c0.3,0.1,0.3-0.2,0.5-0.4c2-2.2,3.9-4.4,6-6.7c-0.6-0.1-0.9-0.1-1.2-0.1c3-3.5,6.6-6.3,10.9-8.2
			C96.6,129.7,97.7,134.9,99.5,140z"/>
		<path class="st1" d="M54.2,167.5c3.6-3.8,7.1-7.7,10.7-11.5c0.2-0.3,0.6-0.4,0.9-0.6c2.9,3.5,4.5,7.6,5.6,11.9
			c-4,0.7-8,0.6-12,0.4C57.8,167.7,56,167.6,54.2,167.5z"/>
		<path class="st1" d="M92.4,160.5c2.7-3.2,5.7-6,9.5-8.2c0.9,2.2,1.4,4.2,1.7,6.3C99.8,159.2,96.1,159.9,92.4,160.5z"/>
		<path class="st1" d="M92.1,160.8c0.1-0.1,0.2-0.2,0.3-0.3C92.3,160.6,92.2,160.7,92.1,160.8z"/>
		<path class="st0" d="M45.8,211.6c-0.1,0.2,0,0.5-0.4,0.4C45.5,211.7,45.6,211.6,45.8,211.6z"/>
		<path class="st0" d="M278.2,28.8c0.4,0,0.3,0.2,0.3,0.5C278.3,29.2,278.1,29.1,278.2,28.8z"/>
		<path class="st2" d="M99.5,140c-1.8-5.1-2.9-10.3-2.6-15.8c0.2-3.4,0.8-6.8,2-10c0.3-0.9,0.7-1.7,0.7-2.7c0.6-0.7,0.4-1.8,1.4-2.2
			c1.2,1.2,2.4,2.4,3.6,3.6c5.6,5.7,12.3,8.4,20.3,7c4.1-0.7,7.7-2.2,10.5-5.4c3.1-3.6,2.6-7.8-1.2-10.6c-1.3-0.9-2.7-1.6-4.3-1.8
			c-5-0.8-10-0.2-15,0.2c-3.6,0.3-7.3,0.6-10.8,1.7c-3.5,0.8-4.5,0.3-5.9-3.1c-0.4-1.1-0.8-2.2-1.2-3.3c-0.7-2.3-1.4-4.6-2-6.9
			c-0.7-2.3-1.3-4.6-2-6.9c1.5-1.4,2.8-2.7,4.2-3.9c2.4-2.1,4.7-4.1,8-4.8c1.5-0.3,1.7-1.6,1-2.9c-1-0.6-1.8,0.2-2.7,0.1
			c-0.4,0-0.8-0.1-0.9,0.4l0,0c-0.7,0-1.5,0-2.2,0c-1.7,0.1-2.7-0.5-2.8-2.4c0.5-4,3.1-6.7,5.6-9.4c2.7-1.5,5.5-2.7,8.6-2.9
			c3.7-0.2,7.3-0.3,11-0.5c4.2,0.1,8.4,0.2,12.6,0.4c2.7,0.1,5.4,0.3,7.9,1.2c1.1,0.4,2.1,0.9,2.8,2c1.1,1.6,4.4,2.2,6.3,1.4
			c1.4-0.6,2.7-1.5,3.9-2.5c2.8-2.4,6.5-2.5,9.9-2.8c7.1-0.6,14.2-0.7,21.2-0.9c4.3-0.1,8.5-0.3,12.8-0.2c3,0.1,6,0.3,9,0.8
			c6.2,1.2,7.8,4.4,7,10.6c-1.2,8.8-9,14.5-16.9,16.2c-2,0.4-4,0.3-6,0.4c-0.9,0-1.8,0.1-2.6,0.6c0.5,2.4,1.6,4.7,1.9,7.2
			c0.4,3.8,0.8,7.5,0.4,11.3c-0.5,5.5-1.7,10.8-4.1,15.7c-4.3,8.6-11.2,14-20.6,16.2c-5.4,1.4-11,1.9-16.5,2.3
			c-6.8,0.5-13.6,0.8-20.5,1.2c-4.9,0.3-9.7,0.6-14.6,1.3c-3.7,0.6-6.5,2.6-9.4,4.7c-1.3,1-2.6,2.1-4.3,2.6
			C101.3,145.2,100.7,142.4,99.5,140z"/>
		<rect x="281.3" y="213.6" class="st4" width="38.4" height="66.3"/>
		<path class="st0" d="M111.8,58.1c-3.1,0.2-5.9,1.4-8.6,2.9c1-1.3,2-2.6,3-3.9C108.2,57.4,110,57.8,111.8,58.1z"/>
		<path class="st0" d="M78.3,112.2c0,0-0.1,0.1-0.1,0.1c0,0-0.1-0.1-0.1-0.1c0-0.1,0.1-0.1,0.1-0.1
			C78.2,112.1,78.3,112.2,78.3,112.2z"/>
		<path class="st0" d="M77,105.3c0,0.1,0,0.2,0.1,0.3c0,0-0.1,0-0.1,0C77,105.4,77,105.4,77,105.3z"/>
		<path class="st0" d="M119,45c-0.2,0-0.3,0-0.5,0.1c-0.1-0.3,0.1-0.3,0.2-0.4C118.9,44.8,119,44.9,119,45z"/>
		<path class="st1" d="M300.2,89.8c-6-2-10.9-5.4-14.9-10.2c-2.4-2.9-4.1-6.2-5.7-9.5c-0.1-0.1,0.2-0.4,0.3-0.6
			c8.7-0.8,16.7,1,23.8,6.4c5.1,3.9,9,8.8,12.1,14.6C310.2,91.4,305.2,90.9,300.2,89.8z"/>
		<path class="st0" d="M81.1,139.3c-0.1,0.2-0.1,0.5-0.5,0.4C80.8,139.6,80.9,139.4,81.1,139.3z"/>
		<rect x="72.4" y="213.5" class="st4" width="38.4" height="66.6"/>
		<path class="st1" d="M300.5,208.2c-0.1,1.8-0.3,3.6-0.5,5.4c-6.4,0-12.3,0-18.8,0c-1.2-5.4-1.5-10.8-0.5-16.2
			c1.2-6.6,3.7-12.6,7.2-18.3c0.2-0.2,0.3-0.5,0.5-0.7c0.1-0.2,0.3-0.3,0.5-0.5c2.4,2.3,4.1,5,5.7,7.8
			C298.8,192.6,300.3,200.3,300.5,208.2z"/>
		<path class="st1" d="M95,90.8c-2.8,0.1-5.7,0.3-8.6-0.5c2.1-4.4,5-8.1,8.4-11.5c2.4-2.4,5.2-4.1,7.8-6.1l0,0
			c0.3-0.1,0.7,0,0.9-0.4c0.9,0.1,1.7-0.7,2.7-0.1c0.7,1.3,0.5,2.5-1,2.9c-3.3,0.7-5.6,2.8-8,4.8c-1.4,1.2-2.8,2.6-4.2,3.9
			C93.6,86.2,94.3,88.5,95,90.8z"/>
		<path class="st0" d="M103.5,72.3c-0.2,0.4-0.6,0.3-0.9,0.4C102.8,72.3,103.2,72.4,103.5,72.3z"/>
		<rect x="91.6" y="231.9" class="st5" width="208.9" height="75.6"/>
		<g>
			<path class="st6" d="M102.3,253.2c0-0.2,0-0.3,0-0.4l0-0.5l0.1-0.1c0.2,0.1,0.4,0.2,0.7,0.2c0.3,0,0.6-0.1,0.7-0.3
				c0.1-0.2,0.2-0.8,0.2-1.8v-5.3c0-1.4,0-2.1-0.1-2.3s-0.3-0.2-0.7-0.2h-0.4V242c0.4,0,1,0,1.7,0c0.8,0,1.4,0,1.9,0v0.4l-0.4,0
				c-0.3,0-0.5,0.1-0.6,0.1c-0.1,0-0.1,0.1-0.1,0.2c0,0.1,0,0.5,0,1.1v5.3c0,0.9-0.1,1.5-0.2,1.9c-0.2,0.6-0.5,1.1-1,1.6
				s-0.9,0.6-1.4,0.6C102.5,253.2,102.4,253.2,102.3,253.2z"/>
			<path class="st6" d="M107,247.9c0-0.6,0.1-1.1,0.4-1.5c0.3-0.5,0.6-0.8,1.1-1.1c0.5-0.3,1-0.4,1.6-0.4c0.9,0,1.6,0.3,2.1,0.8
				c0.5,0.5,0.8,1.2,0.8,2.1c0,1-0.3,1.8-1,2.4c-0.6,0.5-1.3,0.8-2.2,0.8c-0.8,0-1.5-0.3-2-0.8C107.3,249.6,107,248.8,107,247.9z
				 M108.2,247.4c0,0.8,0.2,1.6,0.5,2.2c0.3,0.6,0.8,0.9,1.5,0.9c0.5,0,0.9-0.2,1.2-0.6c0.3-0.4,0.5-1,0.5-1.7
				c0-0.6-0.1-1.2-0.3-1.6s-0.4-0.8-0.7-1c-0.3-0.2-0.6-0.3-1-0.3c-0.3,0-0.6,0.1-0.9,0.2s-0.5,0.4-0.6,0.7
				C108.3,246.6,108.2,247,108.2,247.4z"/>
			<path class="st6" d="M115.7,246l0.9-0.8c0.1-0.1,0.2-0.2,0.4-0.2c0.3-0.1,0.5-0.1,0.8-0.1c0.4,0,0.8,0.1,1.1,0.3
				c0.3,0.2,0.6,0.4,0.7,0.7c0.1,0.3,0.2,0.7,0.2,1.3l0,1.9c0,0.7,0,1.1,0.1,1.2c0.1,0.1,0.2,0.2,0.5,0.2h0.4v0.4
				c-0.4,0-0.8,0-1.1,0c-0.3,0-0.6,0-1,0c0.1-0.8,0.1-1.9,0.1-3.2c0-0.5,0-0.9-0.1-1.2c-0.1-0.2-0.3-0.4-0.5-0.6s-0.5-0.2-0.8-0.2
				c-0.4,0-0.7,0.1-1,0.3c-0.3,0.2-0.4,0.4-0.5,0.7c0,0.2-0.1,0.6-0.1,1.3c0,0.8,0,1.4,0,2.1c0,0.2,0,0.3,0.1,0.4
				c0.1,0.1,0.3,0.1,0.5,0.1h0.4v0.4c-0.7,0-1.2,0-1.7,0c-0.4,0-0.9,0-1.5,0v-0.4h0.4c0.3,0,0.5-0.1,0.5-0.2c0.1-0.1,0.1-1,0.1-2.6
				c0-0.7,0-1.3,0-1.6c0-0.1,0-0.2-0.1-0.3c-0.1,0-0.2-0.1-0.5-0.1h-0.4v-0.4c0.4,0,0.7-0.1,0.9-0.2c0.3-0.1,0.6-0.2,0.9-0.3
				c0,0,0.1,0,0.1,0c0.1,0,0.1,0,0.1,0.1l0,0.2L115.7,246z"/>
			<path class="st6" d="M126.3,246c0.1,0.3,0.1,0.5,0.1,0.6c0,0.4-0.1,0.7-0.3,1.1c-0.2,0.3-0.5,0.6-0.9,0.8
				c-0.4,0.2-0.9,0.3-1.3,0.3l-0.3,0c-0.3,0.2-0.4,0.3-0.5,0.4c-0.1,0.1-0.1,0.2-0.1,0.3c0,0.2,0.1,0.3,0.2,0.4s0.5,0.1,1,0.1
				c0.2,0,0.5,0,0.8,0c0.5,0,0.9,0,1.1,0c0.3,0,0.6,0.1,0.7,0.2c0.2,0.1,0.3,0.3,0.4,0.5c0.1,0.3,0.2,0.6,0.2,0.9
				c0,0.5-0.1,0.9-0.4,1.3c-0.3,0.4-0.7,0.8-1.2,1c-0.5,0.3-1.1,0.4-1.8,0.4c-0.8,0-1.5-0.2-2-0.6c-0.5-0.4-0.7-0.8-0.7-1.4
				c0-0.3,0.1-0.7,0.4-1c0.4-0.2,0.8-0.4,1.1-0.6c-0.3-0.1-0.6-0.2-0.6-0.3c-0.1-0.1-0.1-0.2-0.1-0.4c0-0.2,0-0.3,0.1-0.5
				c0.1-0.1,0.2-0.2,0.4-0.4l0.6-0.4c-0.5-0.1-0.8-0.3-1.1-0.5c-0.3-0.3-0.4-0.7-0.4-1.2c0-0.4,0.1-0.8,0.3-1.1
				c0.2-0.3,0.5-0.6,0.9-0.8c0.5-0.3,1-0.4,1.5-0.4c0.3,0,0.6,0,0.8,0.1c0.2,0.1,0.5,0.2,0.7,0.4h0.5c0.5,0,0.9,0,1.2-0.1l0.1,0.1
				c-0.1,0.2-0.2,0.4-0.3,0.6H126.3z M123.7,250.9c-0.3,0-0.5,0-0.6,0.1c-0.3,0.2-0.6,0.4-0.6,0.5c-0.1,0.2-0.2,0.5-0.2,0.8
				c0,0.4,0.2,0.8,0.5,1.1c0.3,0.3,0.8,0.4,1.4,0.4c0.5,0,0.9-0.1,1.2-0.3c0.3-0.2,0.6-0.4,0.8-0.7c0.2-0.3,0.3-0.6,0.3-0.9
				c0-0.3-0.1-0.5-0.2-0.7c-0.1-0.2-0.3-0.3-0.5-0.4c-0.1,0-0.3,0-0.6,0H123.7z M125.4,247c0-0.5-0.1-0.9-0.4-1.2
				c-0.3-0.3-0.6-0.5-1-0.5c-0.4,0-0.7,0.1-1,0.4c-0.2,0.3-0.4,0.6-0.4,1.1c0,0.5,0.1,1,0.4,1.3c0.3,0.3,0.6,0.5,1,0.5
				s0.7-0.1,1-0.4C125.3,247.8,125.4,247.4,125.4,247z"/>
			<path class="st6" d="M129.4,247.8c0,0.8,0.2,1.4,0.6,1.8c0.4,0.4,0.9,0.6,1.5,0.6c0.3,0,0.6,0,0.9-0.1c0.3-0.1,0.6-0.2,0.8-0.4
				l0.1,0.1l-0.2,0.5c-0.3,0.2-0.7,0.3-1.1,0.4s-0.7,0.1-1.1,0.1c-0.8,0-1.5-0.3-2-0.8s-0.8-1.2-0.8-2.1c0-0.7,0.1-1.3,0.4-1.8
				c0.2-0.3,0.5-0.6,1-0.9s1-0.4,1.5-0.4c0.7,0,1.3,0.2,1.7,0.6c0.4,0.4,0.6,1,0.6,1.8l0,0.4c-0.3,0.1-0.5,0.1-0.8,0.1
				c-0.4,0-1,0-1.8,0H129.4z M129.4,247.4c0.6,0,1.3,0,2.1,0c0.3,0,0.6,0,0.9,0V247c0-0.4-0.1-0.7-0.2-1c-0.1-0.2-0.2-0.4-0.5-0.5
				c-0.2-0.1-0.5-0.2-0.8-0.2c-0.5,0-0.8,0.2-1.1,0.5C129.5,246.1,129.4,246.7,129.4,247.4z"/>
			<path class="st6" d="M136.2,246.3c0.2-0.2,0.3-0.4,0.5-0.6c0.2-0.3,0.4-0.5,0.6-0.6c0.2-0.1,0.4-0.2,0.6-0.2c0.2,0,0.4,0,0.5,0.1
				c0.1,0,0.1,0.1,0.1,0.1l0,0.1c-0.1,0.3-0.1,0.8-0.1,1.4h-0.3c-0.1-0.2-0.2-0.4-0.3-0.4s-0.3-0.1-0.5-0.1c-0.2,0-0.5,0.1-0.7,0.2
				c-0.2,0.2-0.3,0.4-0.4,0.7c-0.1,0.3-0.1,0.9-0.1,1.7c0,0.6,0,1,0.1,1.4c0,0.1,0.1,0.2,0.1,0.3c0.2,0.1,0.4,0.1,0.7,0.1h0.4v0.4
				c-0.6,0-1.2,0-1.8,0c-0.5,0-1.1,0-1.6,0v-0.4l0.6,0c0.2,0,0.3-0.1,0.4-0.1c0.1-0.1,0.1-0.3,0.1-0.6c0-0.6,0-1.3,0-2.1
				c0-1,0-1.6-0.1-1.7c-0.1-0.1-0.2-0.2-0.5-0.2h-0.5v-0.4c0.4,0,0.8-0.1,1.1-0.2c0.3-0.1,0.6-0.2,0.8-0.3c0.1,0,0.1,0,0.1,0
				c0,0,0.1,0,0.1,0c0,0,0,0.1,0,0.2L136.2,246.3z"/>
			<path class="st6" d="M140.4,247.8c0,0.8,0.2,1.4,0.6,1.8c0.4,0.4,0.9,0.6,1.5,0.6c0.3,0,0.6,0,0.9-0.1c0.3-0.1,0.6-0.2,0.8-0.4
				l0.1,0.1l-0.2,0.5c-0.3,0.2-0.7,0.3-1.1,0.4s-0.7,0.1-1.1,0.1c-0.8,0-1.5-0.3-2-0.8s-0.8-1.2-0.8-2.1c0-0.7,0.1-1.3,0.4-1.8
				c0.2-0.3,0.5-0.6,1-0.9s1-0.4,1.5-0.4c0.7,0,1.3,0.2,1.7,0.6c0.4,0.4,0.6,1,0.6,1.8l0,0.4c-0.3,0.1-0.5,0.1-0.8,0.1
				c-0.4,0-1,0-1.8,0H140.4z M140.4,247.4c0.6,0,1.3,0,2.1,0c0.3,0,0.6,0,0.9,0V247c0-0.4-0.1-0.7-0.2-1c-0.1-0.2-0.2-0.4-0.5-0.5
				c-0.2-0.1-0.5-0.2-0.8-0.2c-0.5,0-0.8,0.2-1.1,0.5C140.5,246.1,140.4,246.7,140.4,247.4z"/>
			<path class="st6" d="M147.1,246l0.9-0.8c0.1-0.1,0.2-0.2,0.4-0.2c0.3-0.1,0.5-0.1,0.8-0.1c0.4,0,0.8,0.1,1.1,0.3
				c0.3,0.2,0.6,0.4,0.7,0.7c0.1,0.3,0.2,0.7,0.2,1.3l0,1.9c0,0.7,0,1.1,0.1,1.2c0.1,0.1,0.2,0.2,0.5,0.2h0.4v0.4
				c-0.4,0-0.8,0-1.1,0c-0.3,0-0.6,0-1,0c0.1-0.8,0.1-1.9,0.1-3.2c0-0.5,0-0.9-0.1-1.2c-0.1-0.2-0.3-0.4-0.5-0.6s-0.5-0.2-0.8-0.2
				c-0.4,0-0.7,0.1-1,0.3c-0.3,0.2-0.4,0.4-0.5,0.7c0,0.2-0.1,0.6-0.1,1.3c0,0.8,0,1.4,0,2.1c0,0.2,0,0.3,0.1,0.4
				c0.1,0.1,0.3,0.1,0.5,0.1h0.4v0.4c-0.7,0-1.2,0-1.7,0c-0.4,0-0.9,0-1.5,0v-0.4h0.4c0.3,0,0.5-0.1,0.5-0.2c0.1-0.1,0.1-1,0.1-2.6
				c0-0.7,0-1.3,0-1.6c0-0.1,0-0.2-0.1-0.3c-0.1,0-0.2-0.1-0.5-0.1h-0.4v-0.4c0.4,0,0.7-0.1,0.9-0.2c0.3-0.1,0.6-0.2,0.9-0.3
				c0,0,0.1,0,0.1,0c0.1,0,0.1,0,0.1,0.1l0,0.2L147.1,246z"/>
			<path class="st6" d="M152.6,248.3L152.6,248.3c0-0.4,0.1-0.7,0.2-1c0.6,0,1.1,0,1.5,0c0.3,0,0.9,0,1.8,0l0,0.1
				c-0.1,0.3-0.2,0.6-0.3,0.9c-0.6,0-1.1-0.1-1.6-0.1C153.8,248.3,153.2,248.3,152.6,248.3z"/>
			<path class="st6" d="M165,246.3l0.4-0.6c0.4,0,0.8,0,1,0l0.8,0c0.8,0,1.4,0,1.9,0c-0.1,0.4-0.1,0.6-0.1,0.9
				c-0.4-0.1-1-0.1-1.8-0.1c0,0.2,0.1,0.4,0.1,0.5c0,0.3-0.1,0.7-0.2,1c-0.2,0.3-0.4,0.7-0.8,1.1c0.4,0.3,0.8,0.5,1.2,0.7
				c0.4,0.1,0.7,0.2,1,0.2c0.2,0,0.4-0.1,0.7-0.3l0.1,0.3c-0.5,0.4-0.9,0.7-1.1,0.8c-0.2,0.1-0.3,0.1-0.5,0.1c-0.6,0-1.4-0.3-2.2-1
				c-0.5,0.4-0.9,0.7-1.3,0.8c-0.4,0.1-0.8,0.2-1.3,0.2c-0.8,0-1.4-0.2-1.9-0.7c-0.5-0.5-0.7-1.1-0.7-1.8c0-0.6,0.2-1.1,0.5-1.6
				c0.2-0.3,0.7-0.7,1.4-1.1c-0.2-0.6-0.4-1.2-0.4-1.6c0-0.3,0-0.6,0.1-0.9c0.1-0.2,0.2-0.3,0.4-0.5c0.5-0.4,0.8-0.7,0.9-0.7
				c0.2-0.1,0.4-0.1,0.6-0.1c0.3,0,0.6,0.1,0.8,0.3c0.2,0.2,0.3,0.5,0.3,0.9c0,0.8-0.6,1.7-1.8,2.5c0.7,1.2,1.5,2.3,2.6,3.2
				c0.2-0.3,0.4-0.5,0.5-0.8c0.1-0.2,0.1-0.5,0.1-0.8c0-0.3,0-0.5-0.1-0.7c0-0.1-0.1-0.1-0.2-0.2C165.9,246.4,165.5,246.4,165,246.3
				L165,246.3z M165,249.6c-1-0.9-1.8-2-2.6-3.4c-0.4,0.3-0.7,0.6-0.8,0.8s-0.2,0.6-0.2,1c0,0.6,0.2,1.1,0.6,1.5
				c0.4,0.5,0.9,0.7,1.5,0.7C163.9,250.2,164.4,250,165,249.6z M163,245.2c0.8-0.6,1.1-1.2,1.1-1.8c0-0.3-0.1-0.5-0.2-0.6
				c-0.1-0.2-0.3-0.2-0.5-0.2c-0.2,0-0.4,0.1-0.6,0.3c-0.1,0.2-0.2,0.5-0.2,0.8C162.7,244.1,162.8,244.6,163,245.2z"/>
			<path class="st6" d="M178.5,242.5c-0.1,0.4-0.2,1-0.2,1.7h-0.4v-0.5c0-0.3,0-0.5-0.1-0.7c-0.1-0.1-0.3-0.2-0.7-0.4
				c-0.4-0.1-0.7-0.2-1.1-0.2c-0.7,0-1.2,0.2-1.5,0.5c-0.4,0.3-0.6,0.8-0.6,1.3c0,0.3,0.1,0.6,0.2,0.8c0.2,0.2,0.4,0.4,0.6,0.5
				s0.8,0.2,1.7,0.3c0.8,0.1,1.4,0.2,1.7,0.3c0.3,0.1,0.5,0.4,0.7,0.7c0.2,0.3,0.3,0.7,0.3,1.1c0,0.8-0.3,1.5-1,2.1
				c-0.7,0.6-1.6,0.9-2.8,0.9c-0.4,0-0.8,0-1.2-0.1s-0.8-0.2-1.2-0.4c0.1-0.5,0.1-1.1,0.1-1.9h0.4v0.3c0,0.4,0,0.6,0.1,0.7
				c0,0.1,0.1,0.2,0.3,0.3c0.2,0.2,0.5,0.3,0.8,0.4c0.3,0.1,0.6,0.1,1,0.1c0.8,0,1.4-0.2,1.8-0.5c0.4-0.4,0.6-0.8,0.6-1.4
				c0-0.3-0.1-0.6-0.2-0.8c-0.1-0.2-0.3-0.4-0.6-0.5c-0.3-0.1-0.7-0.2-1.4-0.3c-0.9-0.1-1.6-0.2-1.9-0.3c-0.3-0.1-0.6-0.4-0.8-0.7
				c-0.2-0.3-0.3-0.7-0.3-1.2c0-0.8,0.3-1.5,0.9-2c0.6-0.5,1.4-0.8,2.4-0.8c0.4,0,0.8,0,1.2,0.1
				C177.6,242.1,178.1,242.3,178.5,242.5z"/>
			<path class="st6" d="M181.5,246v2.4c0,0.6,0,1,0.1,1.2s0.1,0.3,0.2,0.4c0.1,0.1,0.3,0.1,0.5,0.1c0.1,0,0.2,0,0.3-0.1
				c0.1,0,0.2-0.1,0.3-0.2l0.2,0.2l-0.6,0.7c-0.1,0-0.3,0.1-0.4,0.1c-0.1,0-0.2,0-0.4,0c-0.3,0-0.6-0.1-0.8-0.2
				c-0.2-0.1-0.4-0.3-0.5-0.4c-0.1-0.2-0.1-0.4-0.1-0.8l0-1.2V246c-0.3,0-0.6,0-1,0v-0.3c0.4-0.1,0.7-0.3,1-0.4c0-0.6,0-1.2,0-1.9
				c0.5-0.2,0.8-0.4,1-0.5l0.2,0.1c0,0.3-0.1,1.1-0.1,2.3c0.5,0,0.9,0,1.2,0l0.5,0l-0.1,0.6l-0.3,0l-1.2,0H181.5z"/>
			<path class="st6" d="M188.5,250.8l0.1-1.1l-0.4,0.4c-0.3,0.3-0.6,0.5-0.9,0.6c-0.3,0.1-0.7,0.2-1.1,0.2c-0.4,0-0.7-0.1-1-0.2
				c-0.3-0.2-0.5-0.4-0.6-0.6c-0.1-0.2-0.2-0.6-0.2-1.2c0-0.3,0-0.6,0-1l0-1c0-0.7,0-1.1-0.1-1.2s-0.2-0.1-0.4-0.1h-0.5v-0.3
				c0.6,0,1.1-0.2,1.6-0.3l0.5-0.2c0.1,0,0.1,0.1,0.1,0.2l0,0.6c-0.1,0.9-0.1,1.7-0.1,2.4c0,0.7,0,1.2,0.1,1.4
				c0.1,0.2,0.2,0.4,0.4,0.5c0.2,0.1,0.4,0.2,0.7,0.2c0.4,0,0.7-0.1,1-0.4c0.3-0.2,0.5-0.5,0.6-0.7c0.1-0.1,0.1-0.6,0.1-1.3
				c0-1.2,0-1.9-0.1-2c0-0.1-0.2-0.1-0.6-0.1h-0.5v-0.3c0.4,0,0.8-0.1,1.1-0.2c0.3-0.1,0.6-0.2,0.9-0.3c0,0,0.1,0,0.1,0
				c0.1,0,0.1,0,0.1,0.1l0,0.6c-0.1,1.4-0.1,2.6-0.1,3.7c0,0.6,0,0.9,0.1,1c0.1,0.1,0.3,0.2,0.6,0.2h0.4v0.4c-0.5,0-0.9,0-1.3,0
				C189,250.8,188.7,250.8,188.5,250.8z"/>
			<path class="st6" d="M196.2,245.2V243c0-0.3,0-0.4-0.1-0.5c-0.1-0.1-0.2-0.1-0.4-0.1h-0.5V242c0.7,0,1.4-0.2,2-0.4l0.1,0.1
				c0,0.4-0.1,0.9-0.1,1.5l0,1.6l0,0.5v3.7c0,0.7,0,1.1,0.1,1.1c0.1,0.1,0.2,0.2,0.5,0.2l0.4,0.1v0.4c-0.5,0-1-0.1-1.3-0.1
				c-0.1,0-0.3,0-0.8,0.1c0-0.3,0.1-0.7,0.1-1.2c-0.3,0.3-0.8,0.6-1.3,1.1c-0.3,0.1-0.7,0.2-0.9,0.2c-0.7,0-1.3-0.3-1.7-0.8
				s-0.7-1.2-0.7-2.1c0-0.5,0.1-1,0.3-1.4c0.2-0.4,0.4-0.7,0.6-0.8c0.3-0.2,0.6-0.4,1.2-0.7c0.4-0.2,0.8-0.3,1.1-0.3
				c0.2,0,0.5,0,0.7,0.1S195.9,245.1,196.2,245.2z M196.2,246.3c-0.3-0.3-0.6-0.5-0.9-0.7c-0.3-0.2-0.6-0.2-1-0.2
				c-0.5,0-1,0.2-1.3,0.6s-0.5,1-0.5,1.7c0,0.8,0.2,1.4,0.6,1.8s0.8,0.7,1.4,0.7c0.3,0,0.6-0.1,0.9-0.3c0.3-0.2,0.5-0.4,0.6-0.7
				s0.2-0.8,0.2-1.4V246.3z"/>
			<path class="st6" d="M200.1,247.8c0,0.8,0.2,1.4,0.6,1.8c0.4,0.4,0.9,0.6,1.5,0.6c0.3,0,0.6,0,0.9-0.1c0.3-0.1,0.6-0.2,0.8-0.4
				l0.1,0.1l-0.2,0.5c-0.3,0.2-0.7,0.3-1.1,0.4s-0.7,0.1-1.1,0.1c-0.8,0-1.5-0.3-2-0.8c-0.5-0.5-0.8-1.2-0.8-2.1
				c0-0.7,0.1-1.3,0.4-1.8c0.2-0.3,0.5-0.6,1-0.9c0.5-0.3,1-0.4,1.5-0.4c0.7,0,1.3,0.2,1.7,0.6c0.4,0.4,0.6,1,0.6,1.8l0,0.4
				c-0.3,0.1-0.5,0.1-0.8,0.1c-0.4,0-1,0-1.8,0H200.1z M200.1,247.4c0.6,0,1.3,0,2.1,0c0.3,0,0.6,0,0.9,0V247c0-0.4-0.1-0.7-0.2-1
				c-0.1-0.2-0.2-0.4-0.5-0.5c-0.2-0.1-0.5-0.2-0.8-0.2c-0.5,0-0.8,0.2-1.1,0.5C200.3,246.1,200.2,246.7,200.1,247.4z"/>
			<path class="st6" d="M206.9,246l0.9-0.8c0.1-0.1,0.2-0.2,0.4-0.2c0.3-0.1,0.5-0.1,0.8-0.1c0.4,0,0.8,0.1,1.1,0.3
				c0.3,0.2,0.6,0.4,0.7,0.7c0.1,0.3,0.2,0.7,0.2,1.3l0,1.9c0,0.7,0,1.1,0.1,1.2c0.1,0.1,0.2,0.2,0.5,0.2h0.4v0.4
				c-0.4,0-0.8,0-1.1,0c-0.3,0-0.6,0-1,0c0.1-0.8,0.1-1.9,0.1-3.2c0-0.5,0-0.9-0.1-1.2c-0.1-0.2-0.3-0.4-0.5-0.6s-0.5-0.2-0.8-0.2
				c-0.4,0-0.7,0.1-1,0.3c-0.3,0.2-0.4,0.4-0.5,0.7c0,0.2-0.1,0.6-0.1,1.3c0,0.8,0,1.4,0,2.1c0,0.2,0,0.3,0.1,0.4
				c0.1,0.1,0.3,0.1,0.5,0.1h0.4v0.4c-0.7,0-1.2,0-1.7,0c-0.4,0-0.9,0-1.5,0v-0.4h0.4c0.3,0,0.5-0.1,0.5-0.2c0.1-0.1,0.1-1,0.1-2.6
				c0-0.7,0-1.3,0-1.6c0-0.1,0-0.2-0.1-0.3c-0.1,0-0.2-0.1-0.5-0.1h-0.4v-0.4c0.4,0,0.7-0.1,0.9-0.2c0.3-0.1,0.6-0.2,0.9-0.3
				c0,0,0.1,0,0.1,0c0.1,0,0.1,0,0.1,0.1l0,0.2L206.9,246z"/>
			<path class="st6" d="M214.3,246v2.4c0,0.6,0,1,0.1,1.2s0.1,0.3,0.3,0.4c0.1,0.1,0.3,0.1,0.5,0.1c0.1,0,0.2,0,0.3-0.1
				c0.1,0,0.2-0.1,0.3-0.2l0.2,0.2l-0.6,0.7c-0.1,0-0.3,0.1-0.4,0.1c-0.1,0-0.2,0-0.4,0c-0.3,0-0.6-0.1-0.8-0.2
				c-0.2-0.1-0.4-0.3-0.5-0.4s-0.1-0.4-0.1-0.8l0-1.2V246c-0.3,0-0.6,0-1,0v-0.3c0.4-0.1,0.7-0.3,1-0.4c0-0.6,0-1.2,0-1.9
				c0.5-0.2,0.8-0.4,1-0.5l0.2,0.1c0,0.3-0.1,1.1-0.1,2.3c0.5,0,0.9,0,1.2,0l0.5,0l-0.1,0.6l-0.3,0l-1.2,0H214.3z"/>
			<path class="st6" d="M217.6,247.8c0,0.8,0.2,1.4,0.6,1.8c0.4,0.4,0.9,0.6,1.5,0.6c0.3,0,0.6,0,0.9-0.1c0.3-0.1,0.6-0.2,0.8-0.4
				l0.1,0.1l-0.2,0.5c-0.3,0.2-0.7,0.3-1.1,0.4s-0.7,0.1-1.1,0.1c-0.8,0-1.5-0.3-2-0.8c-0.5-0.5-0.8-1.2-0.8-2.1
				c0-0.7,0.1-1.3,0.4-1.8c0.2-0.3,0.5-0.6,1-0.9s1-0.4,1.5-0.4c0.7,0,1.3,0.2,1.7,0.6c0.4,0.4,0.6,1,0.6,1.8l0,0.4
				c-0.3,0.1-0.5,0.1-0.8,0.1c-0.4,0-1,0-1.8,0H217.6z M217.6,247.4c0.6,0,1.3,0,2.1,0c0.3,0,0.6,0,0.9,0V247c0-0.4-0.1-0.7-0.2-1
				c-0.1-0.2-0.2-0.4-0.5-0.5c-0.2-0.1-0.5-0.2-0.8-0.2c-0.5,0-0.8,0.2-1.1,0.5C217.8,246.1,217.7,246.7,217.6,247.4z"/>
			<path class="st6" d="M224.4,246l0.9-0.8c0.1-0.1,0.2-0.2,0.4-0.2c0.3-0.1,0.5-0.1,0.8-0.1c0.4,0,0.8,0.1,1.1,0.3
				c0.3,0.2,0.6,0.4,0.7,0.7c0.1,0.3,0.2,0.7,0.2,1.3l0,1.9c0,0.7,0,1.1,0.1,1.2c0.1,0.1,0.2,0.2,0.5,0.2h0.4v0.4
				c-0.4,0-0.8,0-1.1,0c-0.3,0-0.6,0-1,0c0.1-0.8,0.1-1.9,0.1-3.2c0-0.5,0-0.9-0.1-1.2c-0.1-0.2-0.3-0.4-0.5-0.6s-0.5-0.2-0.8-0.2
				c-0.4,0-0.7,0.1-1,0.3c-0.3,0.2-0.4,0.4-0.5,0.7c0,0.2-0.1,0.6-0.1,1.3c0,0.8,0,1.4,0,2.1c0,0.2,0,0.3,0.1,0.4
				c0.1,0.1,0.3,0.1,0.5,0.1h0.4v0.4c-0.7,0-1.2,0-1.7,0c-0.4,0-0.9,0-1.5,0v-0.4h0.4c0.3,0,0.5-0.1,0.5-0.2c0.1-0.1,0.1-1,0.1-2.6
				c0-0.7,0-1.3,0-1.6c0-0.1,0-0.2-0.1-0.3c-0.1,0-0.2-0.1-0.5-0.1h-0.4v-0.4c0.4,0,0.7-0.1,0.9-0.2c0.3-0.1,0.6-0.2,0.9-0.3
				c0,0,0.1,0,0.1,0c0.1,0,0.1,0,0.1,0.1l0,0.2L224.4,246z"/>
			<path class="st6" d="M233.9,245.3V245c0.4,0,0.8,0,1.1,0c0.4,0,0.8,0,1.2,0v0.4h-0.2c-0.1,0-0.2,0-0.3,0.1
				c-0.1,0-0.1,0.1-0.2,0.1s-0.2,0.3-0.4,0.9c-0.5,1-0.8,1.7-1.1,2.3c-0.2,0.6-0.6,1.3-0.9,2.2h-0.6c-0.5-1.4-1.1-2.7-1.7-3.9
				c-0.2-0.5-0.3-0.8-0.4-0.9c-0.1-0.3-0.2-0.4-0.3-0.5s-0.3-0.1-0.4-0.1h-0.2V245c0.6,0,1.1,0,1.5,0c0.4,0,0.9,0,1.4,0v0.4h-0.3
				c-0.3,0-0.4,0-0.5,0.1c-0.1,0-0.1,0.1-0.1,0.2c0,0.1,0,0.2,0.1,0.4c0.1,0.2,0.6,1.5,1.5,3.7l1.1-2.7c0.3-0.6,0.4-1,0.5-1.3
				c0-0.1,0-0.1,0-0.2c0-0.1,0-0.1-0.1-0.2c-0.1,0-0.2-0.1-0.4-0.1L233.9,245.3z"/>
			<path class="st6" d="M238.1,247.8c0,0.8,0.2,1.4,0.6,1.8c0.4,0.4,0.9,0.6,1.5,0.6c0.3,0,0.6,0,0.9-0.1c0.3-0.1,0.6-0.2,0.8-0.4
				l0.1,0.1l-0.2,0.5c-0.3,0.2-0.7,0.3-1.1,0.4s-0.7,0.1-1.1,0.1c-0.8,0-1.5-0.3-2-0.8c-0.5-0.5-0.8-1.2-0.8-2.1
				c0-0.7,0.1-1.3,0.4-1.8c0.2-0.3,0.5-0.6,1-0.9s1-0.4,1.5-0.4c0.7,0,1.3,0.2,1.7,0.6c0.4,0.4,0.6,1,0.6,1.8l0,0.4
				c-0.3,0.1-0.5,0.1-0.8,0.1c-0.4,0-1,0-1.8,0H238.1z M238.2,247.4c0.6,0,1.3,0,2.1,0c0.3,0,0.6,0,0.9,0V247c0-0.4-0.1-0.7-0.2-1
				c-0.1-0.2-0.2-0.4-0.5-0.5c-0.2-0.1-0.5-0.2-0.8-0.2c-0.5,0-0.8,0.2-1.1,0.5C238.3,246.1,238.2,246.7,238.2,247.4z"/>
			<path class="st6" d="M245,246.3c0.2-0.2,0.3-0.4,0.5-0.6c0.2-0.3,0.4-0.5,0.6-0.6c0.2-0.1,0.4-0.2,0.6-0.2c0.2,0,0.4,0,0.5,0.1
				c0.1,0,0.1,0.1,0.1,0.1l0,0.1c-0.1,0.3-0.1,0.8-0.1,1.4H247c-0.1-0.2-0.2-0.4-0.3-0.4s-0.3-0.1-0.5-0.1c-0.2,0-0.5,0.1-0.7,0.2
				c-0.2,0.2-0.3,0.4-0.4,0.7c-0.1,0.3-0.1,0.9-0.1,1.7c0,0.6,0,1,0.1,1.4c0,0.1,0.1,0.2,0.1,0.3c0.2,0.1,0.4,0.1,0.7,0.1h0.4v0.4
				c-0.6,0-1.2,0-1.8,0c-0.5,0-1.1,0-1.6,0v-0.4l0.6,0c0.2,0,0.3-0.1,0.4-0.1c0.1-0.1,0.1-0.3,0.1-0.6c0-0.6,0-1.3,0-2.1
				c0-1,0-1.6-0.1-1.7c-0.1-0.1-0.2-0.2-0.5-0.2h-0.5v-0.4c0.4,0,0.8-0.1,1.1-0.2c0.3-0.1,0.6-0.2,0.8-0.3c0.1,0,0.1,0,0.1,0
				c0,0,0.1,0,0.1,0s0,0.1,0,0.2L245,246.3z"/>
			<path class="st6" d="M249.2,247.8c0,0.8,0.2,1.4,0.6,1.8c0.4,0.4,0.9,0.6,1.5,0.6c0.3,0,0.6,0,0.9-0.1c0.3-0.1,0.6-0.2,0.8-0.4
				l0.1,0.1l-0.2,0.5c-0.3,0.2-0.7,0.3-1.1,0.4s-0.7,0.1-1.1,0.1c-0.8,0-1.5-0.3-2-0.8c-0.5-0.5-0.8-1.2-0.8-2.1
				c0-0.7,0.1-1.3,0.4-1.8c0.2-0.3,0.5-0.6,1-0.9s1-0.4,1.5-0.4c0.7,0,1.3,0.2,1.7,0.6c0.4,0.4,0.6,1,0.6,1.8l0,0.4
				c-0.3,0.1-0.5,0.1-0.8,0.1c-0.4,0-1,0-1.8,0H249.2z M249.2,247.4c0.6,0,1.3,0,2.1,0c0.3,0,0.6,0,0.9,0V247c0-0.4-0.1-0.7-0.2-1
				c-0.1-0.2-0.2-0.4-0.5-0.5c-0.2-0.1-0.5-0.2-0.8-0.2c-0.5,0-0.8,0.2-1.1,0.5C249.3,246.1,249.2,246.7,249.2,247.4z"/>
			<path class="st6" d="M255.9,246l0.9-0.8c0.1-0.1,0.2-0.2,0.4-0.2c0.3-0.1,0.5-0.1,0.8-0.1c0.4,0,0.8,0.1,1.1,0.3
				c0.3,0.2,0.6,0.4,0.7,0.7c0.1,0.3,0.2,0.7,0.2,1.3l0,1.9c0,0.7,0,1.1,0.1,1.2c0.1,0.1,0.2,0.2,0.5,0.2h0.4v0.4
				c-0.4,0-0.8,0-1.1,0c-0.3,0-0.6,0-1,0c0.1-0.8,0.1-1.9,0.1-3.2c0-0.5,0-0.9-0.1-1.2c-0.1-0.2-0.3-0.4-0.5-0.6s-0.5-0.2-0.8-0.2
				c-0.4,0-0.7,0.1-1,0.3c-0.3,0.2-0.4,0.4-0.5,0.7c0,0.2-0.1,0.6-0.1,1.3c0,0.8,0,1.4,0,2.1c0,0.2,0,0.3,0.1,0.4
				c0.1,0.1,0.3,0.1,0.5,0.1h0.4v0.4c-0.7,0-1.2,0-1.7,0c-0.4,0-0.9,0-1.5,0v-0.4h0.4c0.3,0,0.5-0.1,0.5-0.2c0.1-0.1,0.1-1,0.1-2.6
				c0-0.7,0-1.3,0-1.6c0-0.1,0-0.2-0.1-0.3c-0.1,0-0.2-0.1-0.5-0.1h-0.4v-0.4c0.4,0,0.7-0.1,0.9-0.2c0.3-0.1,0.6-0.2,0.9-0.3
				c0,0,0.1,0,0.1,0c0.1,0,0.1,0,0.1,0.1l0,0.2L255.9,246z"/>
			<path class="st6" d="M263.4,244.8l0.1,0.1c0,0.3,0,0.6-0.1,1c0,1.2,0,2.1,0,2.7c0,0.5,0,1,0.1,1.4c0,0.1,0.1,0.3,0.1,0.3
				s0.2,0.1,0.4,0.1l0.4,0.1v0.4c-0.6,0-1.1,0-1.6,0c-0.5,0-1,0-1.5,0v-0.4l0.5-0.1c0.2,0,0.3-0.1,0.4-0.1c0-0.1,0.1-0.3,0.1-0.6
				c0-0.5,0-1.2,0-2.2c0-0.6,0-1.1,0-1.5c0-0.1,0-0.2-0.1-0.3s-0.2-0.1-0.4-0.1h-0.5v-0.4c0.5-0.1,0.9-0.1,1.1-0.2
				C262.7,245.1,263,245,263.4,244.8z M262.9,242.1c0.2,0,0.4,0.1,0.5,0.2s0.2,0.3,0.2,0.5c0,0.2-0.1,0.4-0.2,0.5s-0.3,0.2-0.5,0.2
				c-0.2,0-0.4-0.1-0.5-0.2s-0.2-0.3-0.2-0.5c0-0.2,0.1-0.4,0.2-0.5S262.7,242.1,262.9,242.1z"/>
			<path class="st6" d="M270.2,246c0.1,0.3,0.1,0.5,0.1,0.6c0,0.4-0.1,0.7-0.3,1.1c-0.2,0.3-0.5,0.6-0.9,0.8s-0.9,0.3-1.3,0.3
				l-0.3,0c-0.3,0.2-0.4,0.3-0.5,0.4c-0.1,0.1-0.1,0.2-0.1,0.3c0,0.2,0.1,0.3,0.2,0.4s0.5,0.1,1,0.1c0.2,0,0.5,0,0.8,0
				c0.5,0,0.9,0,1.1,0c0.3,0,0.6,0.1,0.7,0.2c0.2,0.1,0.3,0.3,0.4,0.5c0.1,0.3,0.2,0.6,0.2,0.9c0,0.5-0.1,0.9-0.4,1.3
				c-0.3,0.4-0.7,0.8-1.2,1c-0.5,0.3-1.1,0.4-1.8,0.4c-0.8,0-1.5-0.2-2-0.6s-0.7-0.8-0.7-1.4c0-0.3,0.1-0.7,0.4-1
				c0.4-0.2,0.8-0.4,1.1-0.6c-0.3-0.1-0.6-0.2-0.6-0.3c-0.1-0.1-0.1-0.2-0.1-0.4c0-0.2,0-0.3,0.1-0.5c0.1-0.1,0.2-0.2,0.4-0.4
				l0.6-0.4c-0.5-0.1-0.8-0.3-1.1-0.5c-0.3-0.3-0.4-0.7-0.4-1.2c0-0.4,0.1-0.8,0.3-1.1c0.2-0.3,0.5-0.6,0.9-0.8
				c0.5-0.3,1-0.4,1.5-0.4c0.3,0,0.6,0,0.8,0.1c0.2,0.1,0.5,0.2,0.7,0.4h0.5c0.5,0,0.9,0,1.2-0.1l0.1,0.1c-0.1,0.2-0.2,0.4-0.3,0.6
				H270.2z M267.6,250.9c-0.3,0-0.5,0-0.6,0.1c-0.3,0.2-0.6,0.4-0.6,0.5c-0.1,0.2-0.2,0.5-0.2,0.8c0,0.4,0.2,0.8,0.5,1.1
				s0.8,0.4,1.4,0.4c0.5,0,0.9-0.1,1.2-0.3c0.3-0.2,0.6-0.4,0.8-0.7c0.2-0.3,0.3-0.6,0.3-0.9c0-0.3-0.1-0.5-0.2-0.7
				c-0.1-0.2-0.3-0.3-0.5-0.4c-0.1,0-0.3,0-0.6,0H267.6z M269.3,247c0-0.5-0.1-0.9-0.4-1.2c-0.3-0.3-0.6-0.5-1-0.5
				c-0.4,0-0.7,0.1-1,0.4c-0.2,0.3-0.4,0.6-0.4,1.1c0,0.5,0.1,1,0.4,1.3c0.3,0.3,0.6,0.5,1,0.5c0.4,0,0.7-0.1,1-0.4
				S269.3,247.4,269.3,247z"/>
			<path class="st6" d="M274,244.8l0.1,0.1c0,0.3,0,0.6-0.1,1c0,1.2,0,2.1,0,2.7c0,0.5,0,1,0.1,1.4c0,0.1,0.1,0.3,0.1,0.3
				s0.2,0.1,0.4,0.1l0.4,0.1v0.4c-0.6,0-1.1,0-1.6,0c-0.5,0-1,0-1.5,0v-0.4l0.5-0.1c0.2,0,0.3-0.1,0.4-0.1c0-0.1,0.1-0.3,0.1-0.6
				c0-0.5,0-1.2,0-2.2c0-0.6,0-1.1,0-1.5c0-0.1,0-0.2-0.1-0.3s-0.2-0.1-0.4-0.1H272v-0.4c0.5-0.1,0.9-0.1,1.1-0.2
				C273.4,245.1,273.7,245,274,244.8z M273.6,242.1c0.2,0,0.4,0.1,0.5,0.2s0.2,0.3,0.2,0.5c0,0.2-0.1,0.4-0.2,0.5s-0.3,0.2-0.5,0.2
				c-0.2,0-0.4-0.1-0.5-0.2s-0.2-0.3-0.2-0.5c0-0.2,0.1-0.4,0.2-0.5S273.4,242.1,273.6,242.1z"/>
			<path class="st6" d="M277.6,246l0.9-0.8c0.1-0.1,0.2-0.2,0.4-0.2c0.3-0.1,0.5-0.1,0.8-0.1c0.4,0,0.8,0.1,1.1,0.3
				c0.3,0.2,0.6,0.4,0.7,0.7c0.1,0.3,0.2,0.7,0.2,1.3l0,1.9c0,0.7,0,1.1,0.1,1.2c0.1,0.1,0.2,0.2,0.5,0.2h0.4v0.4
				c-0.4,0-0.8,0-1.1,0c-0.3,0-0.6,0-1,0c0.1-0.8,0.1-1.9,0.1-3.2c0-0.5,0-0.9-0.1-1.2c-0.1-0.2-0.3-0.4-0.5-0.6s-0.5-0.2-0.8-0.2
				c-0.4,0-0.7,0.1-1,0.3c-0.3,0.2-0.4,0.4-0.5,0.7c0,0.2-0.1,0.6-0.1,1.3c0,0.8,0,1.4,0,2.1c0,0.2,0,0.3,0.1,0.4
				c0.1,0.1,0.3,0.1,0.5,0.1h0.4v0.4c-0.7,0-1.2,0-1.7,0c-0.4,0-0.9,0-1.5,0v-0.4h0.4c0.3,0,0.5-0.1,0.5-0.2c0.1-0.1,0.1-1,0.1-2.6
				c0-0.7,0-1.3,0-1.6c0-0.1,0-0.2-0.1-0.3c-0.1,0-0.2-0.1-0.5-0.1h-0.4v-0.4c0.4,0,0.7-0.1,0.9-0.2c0.3-0.1,0.6-0.2,0.9-0.3
				c0,0,0.1,0,0.1,0c0.1,0,0.1,0,0.1,0.1l0,0.2L277.6,246z"/>
			<path class="st6" d="M288.2,246c0.1,0.3,0.1,0.5,0.1,0.6c0,0.4-0.1,0.7-0.3,1.1c-0.2,0.3-0.5,0.6-0.9,0.8s-0.9,0.3-1.3,0.3
				l-0.3,0c-0.3,0.2-0.4,0.3-0.5,0.4c-0.1,0.1-0.1,0.2-0.1,0.3c0,0.2,0.1,0.3,0.2,0.4s0.5,0.1,1,0.1c0.2,0,0.5,0,0.8,0
				c0.5,0,0.9,0,1.1,0c0.3,0,0.6,0.1,0.7,0.2c0.2,0.1,0.3,0.3,0.4,0.5c0.1,0.3,0.2,0.6,0.2,0.9c0,0.5-0.1,0.9-0.4,1.3
				c-0.3,0.4-0.7,0.8-1.2,1c-0.5,0.3-1.1,0.4-1.8,0.4c-0.8,0-1.5-0.2-2-0.6s-0.7-0.8-0.7-1.4c0-0.3,0.1-0.7,0.4-1
				c0.4-0.2,0.8-0.4,1.1-0.6c-0.3-0.1-0.6-0.2-0.6-0.3c-0.1-0.1-0.1-0.2-0.1-0.4c0-0.2,0-0.3,0.1-0.5c0.1-0.1,0.2-0.2,0.4-0.4
				l0.6-0.4c-0.5-0.1-0.8-0.3-1.1-0.5c-0.3-0.3-0.4-0.7-0.4-1.2c0-0.4,0.1-0.8,0.3-1.1c0.2-0.3,0.5-0.6,0.9-0.8
				c0.5-0.3,1-0.4,1.5-0.4c0.3,0,0.6,0,0.8,0.1c0.2,0.1,0.5,0.2,0.7,0.4h0.5c0.5,0,0.9,0,1.2-0.1l0.1,0.1c-0.1,0.2-0.2,0.4-0.3,0.6
				H288.2z M285.6,250.9c-0.3,0-0.5,0-0.6,0.1c-0.3,0.2-0.6,0.4-0.6,0.5c-0.1,0.2-0.2,0.5-0.2,0.8c0,0.4,0.2,0.8,0.5,1.1
				s0.8,0.4,1.4,0.4c0.5,0,0.9-0.1,1.2-0.3c0.3-0.2,0.6-0.4,0.8-0.7c0.2-0.3,0.3-0.6,0.3-0.9c0-0.3-0.1-0.5-0.2-0.7
				c-0.1-0.2-0.3-0.3-0.5-0.4c-0.1,0-0.3,0-0.6,0H285.6z M287.3,247c0-0.5-0.1-0.9-0.4-1.2c-0.3-0.3-0.6-0.5-1-0.5
				c-0.4,0-0.7,0.1-1,0.4c-0.2,0.3-0.4,0.6-0.4,1.1c0,0.5,0.1,1,0.4,1.3c0.3,0.3,0.6,0.5,1,0.5c0.4,0,0.7-0.1,1-0.4
				S287.3,247.4,287.3,247z"/>
			<path class="st6" d="M130.5,279.6v4l0,2.3c0,1.4,0,2.5,0,3.1c1.6,0.1,3.3,0.2,5.1,0.2c1.2,0,2.2-0.1,3-0.2
				c0.5-0.1,1.1-0.2,1.7-0.4c0.3-0.9,0.5-2.1,0.8-3.6h1.1c-0.3,2.4-0.4,3.9-0.4,4.7l0,0.7c-1.2,0.1-2.5,0.2-3.7,0.2l-2.5,0
				c-2.8-0.1-4.9-0.1-6.2-0.1c-1.3,0-2.9,0-5,0.1v-1h0.5c0.9,0,1.5-0.1,1.8-0.3c0.2-0.2,0.4-0.6,0.5-1.3c0.1-0.7,0.1-2.2,0.1-4.5
				v-8.9c0-1.5,0-2.6-0.1-3.6c-0.1-0.9-0.1-1.5-0.2-1.7c-0.1-0.2-0.2-0.3-0.3-0.4c-0.2-0.1-0.6-0.2-1.4-0.3l-1.2-0.1v-1h1.7l1.7,0.1
				c1,0,1.7,0.1,2.2,0.1l6.2-0.1l2.9,0c1,0,2,0,3,0.1c-0.4,1.3-0.6,2.9-0.7,5h-1.1c0-1.2-0.1-2.2-0.2-3c-1.3-0.5-2.8-0.7-4.7-0.7
				c-1.5,0-3,0.1-4.6,0.2c0,1,0,2,0,3l0,2.5v3.3c1.1,0.1,2,0.1,2.8,0.1c2.6,0,4-0.1,4.4-0.3c0.3-0.2,0.5-0.7,0.5-1.7v-1.1h1.1
				c-0.1,1.6-0.1,2.9-0.1,3.9c0,1,0,2.2,0.1,3.6h-1.1v-0.9c0-1-0.2-1.7-0.6-1.9c-0.4-0.2-1.8-0.3-4.3-0.3
				C132.4,279.5,131.5,279.5,130.5,279.6z"/>
			<path class="st6" d="M153.2,279.1l-2.4-4c-1.5-2.6-2.8-4.3-3.7-5.2c-0.5-0.5-1.1-0.7-1.7-0.7c-0.2,0-0.5,0-1,0.1v-1l4.8-0.8
				c0.5,0.4,1,0.9,1.4,1.4c0.4,0.5,1,1.5,2,3.1l2.7,4.6l6-8.9h3.4v1h-0.6c-0.4,0-0.8,0.1-1,0.2c-0.2,0.1-1,1-2.2,2.6
				c-2.3,3-3.9,5.1-4.9,6.4l5.3,8.6c1.1,1.7,1.7,2.7,2,2.9c0.3,0.2,0.6,0.3,1.1,0.3h0.7v1c-1.3-0.1-2.2-0.1-2.9-0.1
				c-0.7,0-1.3,0-2,0.1l-6.1-10.2c-0.8,1.1-2,2.9-3.5,5.3c-1.5,2.4-2.5,4-3,5c-0.5-0.1-1-0.1-1.5-0.1c-0.6,0-1.2,0-1.9,0.1v-1h0.7
				c0.4,0,0.8-0.1,1.1-0.4s1.5-1.8,3.5-4.7L153.2,279.1z"/>
			<path class="st6" d="M182.5,282.9h-9.4l-1.1,2.6c-0.7,1.7-1.1,2.8-1.1,3.2c0,0.2,0.1,0.4,0.2,0.5s0.5,0.2,1,0.3l1.6,0.2v1
				c-1-0.1-2.2-0.1-3.5-0.1c-1.6,0-2.9,0-4.1,0.1v-1l0.5,0c0.8,0,1.2-0.1,1.5-0.2c0.2-0.1,0.5-0.5,0.7-1c0.8-1.6,1.5-3.2,2.3-5
				l4.4-10.1c1.2-2.7,2-4.6,2.4-5.8h1.1l8.2,19c0.5,1.3,0.9,2.1,1.1,2.3c0.2,0.3,0.4,0.5,0.6,0.6c0.2,0.1,0.8,0.2,1.6,0.2v1
				c-1.4-0.1-2.7-0.1-4-0.1c-1.2,0-2.8,0-4.7,0.1v-1l1.6-0.1c0.6,0,0.9-0.1,1-0.2c0.2-0.1,0.2-0.3,0.2-0.5c0-0.2-0.2-0.7-0.5-1.5
				L182.5,282.9z M173.7,281.5h8.1l-4.1-9.7L173.7,281.5z"/>
			<path class="st6" d="M198.4,289c1.1,0.1,2.1,0.1,3.1,0.1c2,0,3.6-0.1,4.8-0.2c0.8-0.1,1.6-0.2,2.5-0.5l1-3.8h1.1
				c-0.3,2-0.5,3.9-0.6,5.7c-1,0.2-2.3,0.2-4,0.2l-7.7-0.1c-1,0-2.6,0.1-4.8,0.2v-0.9c0.9-0.4,1.4-0.8,1.5-1.2
				c0.2-0.4,0.2-2.1,0.2-5.1v-8.9c0-3.2-0.1-5-0.2-5.4s-0.6-0.6-1.3-0.6h-1.8v-1c2.6,0.1,4.3,0.1,5.1,0.1c1.1,0,2.6,0,4.6-0.1v1h-2
				c-0.6,0-0.9,0.2-1.1,0.5c-0.2,0.3-0.2,1.7-0.2,4.1v10.3l0,4.6L198.4,289z"/>
			<path class="st6" d="M223.3,269.1c-0.1,1.6-0.2,3.3-0.2,5.1v9.2c0,3.4,0.1,5.3,0.3,5.7c0.2,0.4,0.8,0.5,1.8,0.5h1.2v1
				c-1.9-0.1-3.5-0.1-4.9-0.1c-1.3,0-2.9,0-4.8,0.1v-1h1.4c0.7,0,1.2-0.1,1.4-0.3s0.4-0.6,0.4-1.1c0.1-1.3,0.2-2.9,0.2-4.9v-9.2
				c0-1.8,0-3.5-0.1-5h-1.6c-2.7,0-4.1,0.1-4.4,0.2c-0.3,0.1-0.4,0.6-0.5,1.4l-0.2,2.2h-1l0-1.9c0-0.8-0.1-1.9-0.2-3.3
				c5.8,0.1,9.2,0.1,10.3,0.1l8.9-0.1c-0.2,1.8-0.3,3.6-0.4,5.3h-1l-0.2-2.1c-0.1-0.7-0.2-1.2-0.3-1.3c-0.1-0.1-0.4-0.2-0.8-0.3
				c-1.2-0.1-2.5-0.1-4-0.1H223.3z"/>
			<path class="st6" d="M232.7,289.6h1c1,0,1.6-0.2,1.8-0.7c0.2-0.5,0.3-2.8,0.3-7v-5.5c0-4.3-0.1-6.7-0.3-7.1
				c-0.2-0.4-0.7-0.7-1.6-0.7h-1.3v-1c1.8,0.1,3.6,0.1,5.3,0.1c1.5,0,2.8,0,4-0.1v1h-1.3c-0.8,0-1.3,0.1-1.4,0.3
				c-0.2,0.2-0.3,0.6-0.3,1.4c-0.1,1.2-0.1,3.2-0.1,6.2v5.6c0,4.2,0.1,6.5,0.3,6.9c0.2,0.4,0.8,0.6,1.8,0.6h1.1v1
				c-1.3-0.1-2.8-0.1-4.3-0.1c-1.8,0-3.5,0-4.9,0.1V289.6z"/>
			<path class="st6" d="M243.7,279.1c0-3.5,1.1-6.4,3.4-8.6c2.3-2.2,5.3-3.2,9.1-3.2c3.7,0,6.7,1,8.8,3c2.1,2,3.2,4.7,3.2,8
				c0,3.6-1.2,6.6-3.7,9c-2.5,2.4-5.6,3.6-9.3,3.6c-2.3,0-4.4-0.5-6.1-1.4s-3-2.3-4-4.2C244.2,283.5,243.7,281.5,243.7,279.1z
				 M246.9,277.8c0,2.4,0.4,4.6,1.3,6.4c0.8,1.8,2,3.2,3.4,4.1c1.4,0.9,3,1.3,4.8,1.3c1.7,0,3.1-0.4,4.4-1.1c1.3-0.8,2.2-1.9,3-3.4
				c0.7-1.5,1.1-3.4,1.1-5.5c0-2.3-0.4-4.2-1.2-5.9c-0.8-1.6-1.9-2.8-3.3-3.7s-3-1.2-4.9-1.2c-1.7,0-3.2,0.4-4.5,1.1
				c-1.3,0.7-2.2,1.8-2.9,3.2S246.9,275.9,246.9,277.8z"/>
		</g>
		<polygon class="st7" points="281.3,213.6 300.5,231.9 281.3,231.9 		"/>
		<polyline class="st7" points="110.8,213.5 110.8,231.9 91.6,231.9 		"/>
	</g>
</g>
</svg>
