<?xml version="1.0" encoding="UTF-8" standalone="no"?>
<svg
   xmlns:dc="http://purl.org/dc/elements/1.1/"
   xmlns:cc="http://creativecommons.org/ns#"
   xmlns:rdf="http://www.w3.org/1999/02/22-rdf-syntax-ns#"
   xmlns:svg="http://www.w3.org/2000/svg"
   xmlns="http://www.w3.org/2000/svg"
   version="1.1"
   id="svg2"
   xml:space="preserve"
   width="494.56827"
   height="375.52386"
   viewBox="0 0 494.56827 375.52387"><metadata
     id="metadata8"><rdf:RDF><cc:Work
         rdf:about=""><dc:format>image/svg+xml</dc:format><dc:type
           rdf:resource="http://purl.org/dc/dcmitype/StillImage" /><dc:title></dc:title></cc:Work></rdf:RDF></metadata><defs
     id="defs6"><clipPath
       clipPathUnits="userSpaceOnUse"
       id="clipPath20"><path
         d="M 0,500 H 500 V 0 H 0 Z"
         id="path18" /></clipPath></defs><g
     id="g10"
     transform="matrix(1.3333333,0,0,-1.3333333,-86.049198,521.09479)"><g
       id="g14"><g
         id="g16"
         clip-path="url(#clipPath20)"><g
           id="g22"
           transform="translate(166.6484,169.4072)"><path
             d="m 0,0 c 0,5.987 1.277,11.244 3.797,15.625 2.523,4.389 5.902,7.826 10.041,10.211 4.136,2.382 8.593,3.59 13.244,3.59 3.645,0 7.147,-0.763 10.412,-2.27 3.161,-1.46 5.993,-3.482 8.423,-6.014 l 0.003,-0.003 c 0.389,-0.404 0.743,-0.837 1.106,-1.264 0.385,2.247 1.458,4.237 3.181,5.82 2.063,1.894 4.597,2.894 7.331,2.894 3.292,0 6.295,-1.486 8.455,-4.184 l 5.803,-7.211 5.221,6.918 c 1.655,2.234 3.851,3.688 6.305,4.23 1.268,2.655 2.427,5.37 3.455,8.151 -0.131,0.087 -1.95,1.603 -2.673,2.228 -1.039,-0.749 -2.158,-1.398 -3.34,-1.935 -2.455,-1.115 -5.295,-1.681 -8.44,-1.681 -2.935,0 -5.631,0.664 -8.011,1.97 -2.371,1.298 -4.276,3.04 -5.665,5.175 -0.662,1.018 -1.155,2.083 -1.515,3.179 -0.339,-1.001 -0.765,-1.978 -1.336,-2.907 -1.357,-2.202 -3.194,-4 -5.464,-5.342 -2.319,-1.376 -4.937,-2.075 -7.779,-2.075 -2.398,0 -4.667,0.496 -6.746,1.471 -2.153,1.012 -3.94,2.488 -5.309,4.388 -0.83,1.237 -1.233,2.47 -1.233,3.714 0,1.792 0.755,3.438 2.128,4.632 2.217,1.935 4.974,2.207 7.372,0.725 0.684,-0.424 1.321,-0.927 1.896,-1.494 0.3,-0.265 0.612,-0.47 0.862,-0.565 0.178,-0.069 0.504,-0.152 1.03,-0.152 0.414,0 0.776,0.097 1.139,0.306 0.408,0.235 0.713,0.525 0.961,0.912 0.19,0.297 0.276,0.577 0.276,0.906 v 21.087 c 0,1.816 0.703,3.422 2.033,4.647 1.255,1.153 2.803,1.763 4.476,1.763 1.843,0 3.454,-0.654 4.658,-1.892 1.178,-1.213 1.802,-2.776 1.802,-4.518 V 55.917 c 0.769,1.603 1.839,3.053 3.222,4.299 0.455,0.411 0.956,0.805 1.497,1.18 -0.477,1.188 -0.721,2.467 -0.721,3.815 0,2.268 0.62,4.41 1.838,6.365 1.194,1.914 2.889,3.475 5.039,4.637 2.128,1.15 4.623,1.734 7.415,1.734 2.741,0 5.275,-0.475 7.533,-1.41 2.543,-1.055 4.348,-2.566 5.368,-4.495 0.223,-0.385 0.365,-0.793 0.503,-1.189 0.257,-0.735 0.386,-1.552 0.386,-2.429 0,-1.532 -0.583,-2.924 -1.685,-4.025 -0.767,-0.765 -2.131,-1.68 -4.273,-1.68 -1.205,0 -2.251,0.29 -3.111,0.862 -0.578,0.386 -1.041,0.794 -1.418,1.246 -0.58,0.758 -0.971,0.972 -1.219,1.071 -0.547,0.221 -1.25,0.334 -2.084,0.334 -0.83,0 -1.045,-0.196 -1.047,-0.199 -0.192,-0.196 -0.224,-0.319 -0.224,-0.52 0,-0.321 0.154,-0.69 0.473,-1.131 0.606,-0.842 1.32,-1.654 2.121,-2.414 1.001,-0.948 1.863,-1.82 2.563,-2.592 0.46,-0.488 0.953,-1.001 1.477,-1.532 0.285,0.954 0.819,1.784 1.573,2.428 0.988,0.847 2.284,1.258 3.959,1.258 1.953,0 3.652,-0.873 4.782,-2.458 0.101,-0.14 0.168,-0.296 0.256,-0.443 0.466,3.873 0.72,7.811 0.72,11.809 0,0.759 -0.007,1.524 -0.029,2.276 -0.117,5.357 -0.675,10.602 -1.626,15.704 -3.744,20.172 -13.678,38.165 -27.755,51.939 -2.31,2.261 -4.737,4.413 -7.266,6.439 -16.745,13.43 -38.007,21.46 -61.143,21.46 -13.884,0 -27.092,-2.888 -39.053,-8.107 -0.649,-6.369 -2.276,-12.45 -4.75,-18.076 -0.434,-0.999 -0.897,-1.985 -1.386,-2.95 -0.455,-1.193 -0.82,-2.427 -1.082,-3.709 2.213,0.414 4.502,0.628 6.839,0.628 4.183,0 8.218,-0.69 11.973,-1.966 4.207,4.392 10.128,7.129 16.684,7.129 3.006,0 5.881,-0.573 8.515,-1.621 0.358,-0.868 1.722,-6.659 1.722,-8.769 0,-5.776 -2.123,-11.064 -5.631,-15.118 2.261,-4.412 3.673,-9.335 4.011,-14.546 -4.956,-1.434 -9.754,-3.254 -14.352,-5.419 -15.091,-7.113 -28.066,-17.965 -37.724,-31.367 -1.826,-2.523 -3.536,-5.142 -5.108,-7.838 -0.283,-3.027 -0.428,-6.087 -0.428,-9.183 0,-6.825 0.697,-13.485 2.027,-19.909 1.048,-5.06 2.482,-9.976 4.282,-14.711 3.019,-7.997 8.223,-17.842 11.805,-23.303 2.845,-4.337 9.515,-12.345 12.171,-16.8 4.463,-7.483 9.734,-21.061 11.644,-32.85 1.358,7.977 4.288,15.423 8.452,22.006 1.482,2.337 3.116,4.571 4.909,6.681 1.206,1.447 2.495,2.833 3.853,4.163 3.553,3.492 7.544,6.539 11.874,9.074 -1.042,1.26 -1.976,2.614 -2.779,4.076 C 1.175,-10.015 0,-5.227 0,0"
             style="fill:#a6227e;fill-opacity:1;fill-rule:nonzero;stroke:none"
             id="path24" /></g><g
           id="g26"
           transform="translate(70.6729,275.8115)"><path
             d="m 0,0 c 5.722,0.779 11.195,2.358 16.29,4.626 2.709,1.192 5.309,2.585 7.783,4.157 0.683,2.172 1.048,4.481 1.048,6.88 v 0.145 c -0.007,0.91 -0.062,1.799 -0.173,2.682 1.897,1.93 3.999,3.654 6.281,5.129 3.647,2.371 7.735,4.122 12.113,5.108 h 0.007 c 0.096,0.021 0.193,0.048 0.29,0.062 0.357,0.083 0.723,0.159 1.089,0.221 2.212,0.413 4.501,0.627 6.838,0.627 4.185,0 8.218,-0.689 11.975,-1.965 4.205,4.392 10.127,7.128 16.683,7.128 3.005,0 5.88,-0.571 8.514,-1.619 0.359,-0.869 0.661,-1.765 0.91,-2.682 0.531,-1.937 0.814,-3.978 0.814,-6.087 0,-5.778 -2.124,-11.065 -5.633,-15.119 2.262,-4.412 3.675,-9.335 4.013,-14.546 -4.957,-1.434 -9.755,-3.254 -14.354,-5.419 -15.091,-7.114 -28.065,-17.965 -37.723,-31.367 -1.827,-2.523 -3.536,-5.143 -5.109,-7.838 0,0 -0.037,-0.374 -0.062,-0.704 -0.031,-0.382 -0.093,-1.404 -0.176,-2.364 -0.476,4.419 -5.711,7.859 -10.261,7.859 -1.048,0 -2.054,-0.186 -2.992,-0.524 -1.778,-0.634 -3.288,-1.827 -4.322,-3.364 -0.931,-0.338 -1.945,-0.524 -2.992,-0.524 -1.958,0 -3.764,0.634 -5.226,1.709 -0.517,0.924 -1.021,1.855 -1.51,2.8 0,0 -0.007,0 -0.007,0.006 -0.654,1.262 -1.282,2.537 -1.881,3.827 0,0 -0.007,0 -0.007,0.007 -0.063,0.137 -0.132,0.282 -0.194,0.42 -3.281,7.163 -5.721,14.781 -7.197,22.743 -0.392,2.089 -0.717,4.205 -0.965,6.342 V -0.51 C -4.061,-0.448 -2.014,-0.276 0,0"
             style="fill:#52c2ec;fill-opacity:1;fill-rule:nonzero;stroke:none"
             id="path28" /></g><g
           id="g30"
           transform="translate(104.6592,281.8813)"><path
             d="M 0,0 C 0,-0.11 0,-0.228 0.007,-0.338 0.572,0 1.151,0.311 1.744,0.6 c 1.613,-2.158 4.185,-3.558 7.087,-3.558 3.612,0 6.722,2.172 8.087,5.281 0.09,0.2 0.165,0.4 0.234,0.614 C 15.945,6.37 12.679,8.831 8.831,8.831 4.984,8.831 1.71,6.37 0.504,2.937 0.173,2.02 0,1.027 0,0"
             style="fill:#ffffff;fill-opacity:1;fill-rule:nonzero;stroke:none"
             id="path32" /></g><g
           id="g34"
           transform="translate(193.4795,373.9771)"><path
             d="m 0,0 c 0.509,0.211 1.048,-0.231 0.94,-0.771 l -2.858,-14.364 -2.301,-11.598 c -0.076,-0.383 -0.453,-0.623 -0.832,-0.533 -8.242,1.967 -16.845,3.011 -25.69,3.011 -8.845,0 -17.447,-1.037 -25.69,-3.01 -0.379,-0.09 -0.756,0.15 -0.832,0.533 l -2.301,11.597 -2.858,14.364 c -0.107,0.54 0.432,0.982 0.941,0.771 l 19.252,-7.977 c 0.352,-0.146 0.755,0.021 0.901,0.373 l 9.95,24.022 c 0.235,0.568 1.039,0.568 1.274,0 l 9.95,-24.022 c 0.146,-0.352 0.55,-0.519 0.901,-0.373 z"
             style="fill:#52c2ec;fill-opacity:1;fill-rule:nonzero;stroke:none"
             id="path36" /></g><g
           id="g38"
           transform="translate(294.0967,162.8813)"><path
             d="m 0,0 c -1.032,-2.121 -2.468,-3.794 -4.309,-5.02 -1.841,-1.229 -3.989,-1.841 -6.443,-1.841 -2.398,0 -4.519,0.612 -6.358,1.841 -1.842,1.226 -3.279,2.899 -4.31,5.02 -1.033,2.119 -1.548,4.49 -1.548,7.111 0,2.68 0.515,5.077 1.548,7.197 1.031,2.119 2.468,3.793 4.31,5.021 1.839,1.226 3.96,1.84 6.358,1.84 2.454,0 4.602,-0.614 6.443,-1.84 C -2.468,18.101 -1.032,16.427 0,14.308 1.032,12.188 1.549,9.791 1.549,7.111 1.549,4.49 1.032,2.119 0,0 M 6.15,30.374 C 4.7,30.374 3.5,29.885 2.553,28.91 1.604,27.932 1.131,26.72 1.131,25.27 v -0.124 c -0.493,0.462 -1.027,0.922 -1.632,1.379 -1.478,1.114 -3.222,2.035 -5.229,2.761 -2.009,0.724 -4.212,1.088 -6.611,1.088 -3.738,0 -7.141,-0.991 -10.209,-2.97 -3.068,-1.982 -5.509,-4.715 -7.321,-8.2 -1.813,-3.488 -2.72,-7.518 -2.72,-12.093 0,-4.517 0.907,-8.521 2.72,-12.006 1.812,-3.486 4.28,-6.221 7.405,-8.2 3.123,-1.981 6.61,-2.97 10.46,-2.97 2.119,0 4.086,0.349 5.899,1.046 1.812,0.696 3.387,1.547 4.728,2.552 0.993,0.745 1.831,1.497 2.517,2.258 0.018,-1.413 0.484,-2.601 1.415,-3.556 0.947,-0.976 2.147,-1.464 3.597,-1.464 1.452,0 2.65,0.488 3.599,1.464 0.947,0.975 1.423,2.189 1.423,3.64 V 25.27 c 0,1.506 -0.476,2.731 -1.423,3.681 C 8.8,29.899 7.602,30.374 6.15,30.374"
             style="fill:#ffffff;fill-opacity:1;fill-rule:nonzero;stroke:none"
             id="path40" /></g><g
           id="g42"
           transform="translate(322.085,209.5723)"><path
             d="m 0,0 c -1.451,0 -2.665,-0.489 -3.64,-1.465 -0.976,-0.977 -1.464,-2.19 -1.464,-3.639 v -51.711 c 0,-1.452 0.474,-2.665 1.421,-3.641 0.949,-0.976 2.121,-1.464 3.516,-1.464 1.45,0 2.662,0.488 3.641,1.464 0.974,0.976 1.463,2.189 1.463,3.641 v 51.711 c 0,1.449 -0.46,2.662 -1.38,3.639 C 2.636,-0.489 1.449,0 0,0"
             style="fill:#ffffff;fill-opacity:1;fill-rule:nonzero;stroke:none"
             id="path44" /></g><g
           id="g46"
           transform="translate(358.8184,182.3779)"><path
             d="M 0,0 C 1.339,0 2.453,0.43 3.346,1.296 4.238,2.16 4.685,3.234 4.685,4.518 4.685,5.856 4.238,6.972 3.346,7.865 2.453,8.757 1.339,9.204 0,9.204 h -5.942 v 5.355 c 0,1.45 -0.46,2.664 -1.379,3.64 -0.921,0.975 -2.108,1.464 -3.558,1.464 -1.45,0 -2.664,-0.489 -3.639,-1.464 -0.976,-0.976 -1.465,-2.19 -1.465,-3.64 V 9.204 h -3.849 c -1.339,0 -2.455,-0.433 -3.346,-1.297 -0.893,-0.866 -1.339,-1.939 -1.339,-3.222 0,-1.339 0.446,-2.456 1.339,-3.346 C -22.287,0.445 -21.171,0 -19.832,0 h 3.849 v -23.095 c 0,-2.733 0.42,-4.881 1.255,-6.443 0.836,-1.562 1.882,-2.72 3.138,-3.472 1.256,-0.753 2.595,-1.228 4.017,-1.423 1.423,-0.196 2.719,-0.293 3.89,-0.293 1.952,0 3.78,0.503 5.481,1.507 1.701,1.004 2.552,2.286 2.552,3.848 0,1.284 -0.322,2.287 -0.961,3.013 -0.644,0.725 -1.355,1.088 -2.135,1.088 -0.726,0 -1.367,-0.125 -1.924,-0.377 -0.559,-0.251 -1.171,-0.376 -1.842,-0.376 -0.614,0 -1.184,0.11 -1.714,0.335 -0.531,0.222 -0.949,0.585 -1.255,1.087 -0.307,0.502 -0.461,1.143 -0.461,1.924 V 0 Z"
             style="fill:#ffffff;fill-opacity:1;fill-rule:nonzero;stroke:none"
             id="path48" /></g><g
           id="g50"
           transform="translate(377.1426,207.814)"><path
             d="M 0,0 C -1.785,0 -3.11,-0.292 -3.974,-0.878 -4.84,-1.464 -5.271,-2.566 -5.271,-4.184 v -1.589 c 0,-1.562 0.388,-2.65 1.17,-3.263 0.781,-0.614 2.121,-0.921 4.017,-0.921 1.896,0 3.264,0.293 4.101,0.879 0.836,0.585 1.254,1.687 1.254,3.305 v 1.589 c 0,1.562 -0.39,2.649 -1.171,3.265 C 3.317,-0.306 1.951,0 0,0"
             style="fill:#ffffff;fill-opacity:1;fill-rule:nonzero;stroke:none"
             id="path52" /></g><g
           id="g54"
           transform="translate(377.1426,192.418)"><path
             d="M 0,0 C -1.452,0 -2.65,-0.489 -3.598,-1.464 -4.547,-2.44 -5.02,-3.654 -5.02,-5.103 v -34.558 c 0,-1.452 0.473,-2.665 1.422,-3.641 0.948,-0.976 2.146,-1.464 3.598,-1.464 1.45,0 2.649,0.488 3.599,1.464 0.947,0.976 1.421,2.189 1.421,3.641 v 34.558 c 0,1.449 -0.474,2.663 -1.421,3.639 C 2.649,-0.489 1.45,0 0,0"
             style="fill:#ffffff;fill-opacity:1;fill-rule:nonzero;stroke:none"
             id="path56" /></g><g
           id="g58"
           transform="translate(423.7061,162.6714)"><path
             d="m 0,0 c -1.145,-2.092 -2.678,-3.724 -4.603,-4.895 -1.923,-1.171 -4.057,-1.756 -6.4,-1.756 -2.343,0 -4.476,0.585 -6.401,1.756 -1.924,1.171 -3.459,2.803 -4.602,4.895 -1.143,2.092 -1.716,4.532 -1.716,7.321 0,2.846 0.573,5.315 1.716,7.407 1.143,2.091 2.678,3.723 4.602,4.894 1.925,1.171 4.058,1.757 6.401,1.757 2.343,0 4.477,-0.586 6.4,-1.757 C -2.678,18.451 -1.145,16.819 0,14.728 1.143,12.636 1.716,10.167 1.716,7.321 1.716,4.532 1.143,2.092 0,0 m 8.702,19.414 c -2.036,3.485 -4.769,6.218 -8.2,8.2 -3.431,1.979 -7.267,2.97 -11.505,2.97 -4.239,0 -8.075,-0.991 -11.505,-2.97 -3.43,-1.982 -6.164,-4.715 -8.2,-8.2 -2.038,-3.488 -3.055,-7.518 -3.055,-12.093 0,-4.574 1.017,-8.604 3.055,-12.091 2.036,-3.486 4.77,-6.206 8.2,-8.157 3.43,-1.953 7.266,-2.928 11.505,-2.928 4.238,0 8.074,0.975 11.505,2.928 3.431,1.951 6.164,4.671 8.2,8.157 2.036,3.487 3.055,7.517 3.055,12.091 0,4.575 -1.019,8.605 -3.055,12.093"
             style="fill:#ffffff;fill-opacity:1;fill-rule:nonzero;stroke:none"
             id="path60" /></g><g
           id="g62"
           transform="translate(209.2021,207.8599)"><path
             d="m 0,0 c -1.908,0 -3.683,0.384 -5.322,1.154 -1.64,0.77 -2.98,1.874 -4.017,3.314 -0.401,0.602 -0.601,1.187 -0.601,1.757 0,0.837 0.326,1.54 0.978,2.108 0.652,0.569 1.297,0.854 1.933,0.854 0.503,0 0.995,-0.151 1.481,-0.452 0.485,-0.3 0.929,-0.653 1.33,-1.054 C -3.548,7.078 -2.887,6.652 -2.234,6.4 -1.582,6.15 -0.838,6.024 0,6.024 c 1.004,0 1.94,0.252 2.811,0.753 0.87,0.502 1.573,1.171 2.109,2.009 0.535,0.835 0.803,1.739 0.803,2.71 v 21.087 c 0,0.869 0.318,1.598 0.954,2.183 0.635,0.585 1.372,0.88 2.209,0.88 0.936,0 1.689,-0.295 2.259,-0.88 0.569,-0.585 0.854,-1.314 0.854,-2.183 V 11.496 C 11.999,9.455 11.463,7.563 10.393,5.823 9.32,4.083 7.882,2.677 6.074,1.607 4.267,0.535 2.241,0 0,0"
             style="fill:#ffffff;fill-opacity:1;fill-rule:nonzero;stroke:none"
             id="path64" /></g><g
           id="g66"
           transform="translate(204.1904,174.9297)"><path
             d="m 0,0 h -21.912 c 0.135,0.687 0.291,1.341 0.492,1.926 0.612,1.784 1.449,3.206 2.51,4.266 1.059,1.06 2.313,1.813 3.765,2.26 1.45,0.445 3.013,0.669 4.685,0.669 1.731,0 3.361,-0.376 4.897,-1.129 C -4.03,7.238 -2.747,6.22 -1.715,4.937 -0.684,3.654 -0.112,2.204 0,0.587 Z m 9.12,-7.112 c 1.005,0.837 1.535,1.925 1.591,3.263 0,3.013 -0.573,5.858 -1.716,8.536 -1.143,2.677 -2.691,5.033 -4.644,7.07 -1.953,2.035 -4.198,3.639 -6.736,4.812 -2.539,1.171 -5.229,1.757 -8.075,1.757 -3.681,0 -7.167,-0.95 -10.459,-2.846 -3.292,-1.897 -5.954,-4.616 -7.99,-8.158 -2.037,-3.543 -3.055,-7.823 -3.055,-12.844 0,-4.296 0.935,-8.145 2.804,-11.546 0.83,-1.512 1.845,-2.859 2.993,-4.09 1.438,-1.541 3.101,-2.885 5.04,-3.985 3.484,-1.982 7.599,-2.971 12.341,-2.971 2.789,0 5.494,0.461 8.117,1.38 2.622,0.921 4.656,1.994 6.108,3.222 1.561,1.226 2.342,2.594 2.342,4.099 0,1.116 -0.404,2.093 -1.212,2.93 -0.196,0.203 -0.406,0.379 -0.628,0.532 -0.69,0.481 -1.498,0.722 -2.426,0.722 -0.646,0 -1.322,-0.135 -2.025,-0.397 -0.269,-0.101 -0.542,-0.216 -0.82,-0.356 -0.614,-0.333 -1.297,-0.739 -2.05,-1.212 -0.753,-0.475 -1.744,-0.88 -2.971,-1.213 -1.227,-0.335 -2.873,-0.503 -4.936,-0.503 -2.165,0 -4.21,0.522 -6.137,1.546 -0.059,0.032 -0.121,0.053 -0.18,0.086 -1.981,1.088 -3.599,2.677 -4.855,4.769 -0.73,1.218 -1.222,2.612 -1.527,4.141 H 5.606 c 1.339,0 2.51,0.42 3.514,1.256"
             style="fill:#ffffff;fill-opacity:1;fill-rule:nonzero;stroke:none"
             id="path68" /></g><g
           id="g70"
           transform="translate(256.2354,155.6016)"><path
             d="m 0,0 -12.047,14.968 11.544,14.066 c 0.446,0.503 0.753,1.033 0.921,1.591 0.167,0.557 0.25,1.115 0.25,1.674 0,1.171 -0.459,2.217 -1.379,3.138 -0.921,0.919 -2.052,1.379 -3.39,1.379 -1.562,0 -2.901,-0.753 -4.016,-2.258 l -9.531,-12.631 -0.763,0.948 -9.537,11.849 c -1.116,1.395 -2.483,2.092 -4.101,2.092 -1.339,0 -2.523,-0.474 -3.555,-1.421 -1.033,-0.95 -1.547,-2.148 -1.547,-3.599 0,-1.116 0.362,-2.12 1.087,-3.012 l 10.865,-13.501 1.19,-1.479 -11.637,-14.222 c -0.836,-1.005 -1.255,-2.064 -1.255,-3.18 0,-1.228 0.544,-2.275 1.631,-3.138 1.088,-0.866 2.189,-1.296 3.306,-1.296 1.616,0 2.955,0.696 4.016,2.092 L -18.12,6.487 -8.117,-5.94 c 1.115,-1.452 2.481,-2.177 4.1,-2.177 1.284,0 2.455,0.503 3.514,1.507 1.06,1.003 1.591,2.203 1.591,3.598 C 1.088,-1.897 0.725,-0.893 0,0"
             style="fill:#ffffff;fill-opacity:1;fill-rule:nonzero;stroke:none"
             id="path72" /></g><g
           id="g74"
           transform="translate(244.6211,214.6113)"><path
             d="m 0,0 c -1.256,-0.719 -2.67,-1.079 -4.243,-1.079 -1.908,0 -3.431,0.309 -4.569,0.929 -1.138,0.619 -1.958,1.405 -2.459,2.359 -0.502,0.955 -0.753,1.934 -0.753,2.937 0,1.473 0.392,2.72 1.179,3.741 0.659,0.856 1.875,1.527 3.63,2.019 0.298,-0.338 0.602,-0.683 0.914,-1.04 C -4.829,8.192 -3.256,6.552 -1.582,4.945 -0.442,3.851 0.777,2.719 2.065,1.555 1.435,0.957 0.751,0.431 0,0 m 14.358,-2.334 c -0.217,0.402 -0.545,0.803 -0.978,1.205 -0.704,0.67 -1.616,1.515 -2.737,2.536 -0.379,0.345 -0.785,0.714 -1.185,1.078 0.185,0.355 0.368,0.712 0.532,1.081 0.854,1.923 1.431,3.89 1.733,5.898 0.132,0.936 -0.05,1.757 -0.553,2.459 -0.502,0.703 -1.189,1.056 -2.059,1.056 -0.837,0 -1.43,-0.152 -1.782,-0.452 C 6.978,12.226 6.769,11.806 6.702,11.271 6.501,9.765 6.107,8.284 5.521,6.828 5.45,6.649 5.368,6.479 5.291,6.305 4.562,6.989 3.835,7.681 3.112,8.385 1.823,9.641 0.66,10.82 -0.377,11.923 c -0.637,0.703 -1.431,1.507 -2.385,2.411 -0.954,0.904 -1.8,1.865 -2.535,2.886 -0.737,1.022 -1.104,2.051 -1.104,3.089 0,1.103 0.392,2.058 1.179,2.861 0.786,0.803 1.933,1.205 3.44,1.205 1.271,0 2.384,-0.193 3.338,-0.577 0.954,-0.385 1.798,-1.064 2.535,-2.033 0.168,-0.201 0.402,-0.402 0.703,-0.603 0.302,-0.201 0.72,-0.301 1.255,-0.301 0.804,0 1.439,0.234 1.908,0.703 0.468,0.468 0.703,1.02 0.703,1.656 0,0.503 -0.067,0.946 -0.201,1.33 -0.135,0.386 -0.218,0.595 -0.251,0.628 -0.636,1.273 -1.883,2.292 -3.74,3.062 -1.858,0.77 -3.942,1.156 -6.25,1.156 -2.243,0 -4.185,-0.445 -5.824,-1.331 -1.641,-0.887 -2.905,-2.043 -3.79,-3.464 -0.888,-1.424 -1.332,-2.954 -1.332,-4.594 0,-1.239 0.293,-2.368 0.879,-3.388 0.316,-0.551 0.692,-1.109 1.12,-1.675 -1.539,-0.68 -2.842,-1.481 -3.881,-2.417 -1.189,-1.072 -2.076,-2.301 -2.661,-3.691 -0.586,-1.389 -0.878,-2.92 -0.878,-4.593 0,-1.908 0.543,-3.699 1.631,-5.372 1.087,-1.674 2.578,-3.03 4.468,-4.066 1.891,-1.038 4.025,-1.556 6.402,-1.556 2.676,0 5.028,0.459 7.053,1.379 1.836,0.835 3.412,1.945 4.753,3.304 1.37,-1.197 2.817,-2.453 4.359,-3.78 0.168,-0.135 0.393,-0.251 0.678,-0.353 0.284,-0.099 0.628,-0.15 1.029,-0.15 0.871,0 1.498,0.319 1.882,0.955 0.385,0.635 0.579,1.171 0.579,1.606 0,0.569 -0.109,1.054 -0.327,1.456"
             style="fill:#ffffff;fill-opacity:1;fill-rule:nonzero;stroke:none"
             id="path76" /></g><g
           id="g78"
           transform="translate(275.6221,207.8599)"><path
             d="m 0,0 c -2.344,0 -4.452,0.293 -6.325,0.878 -1.876,0.585 -3.666,1.615 -5.373,3.087 -0.435,0.369 -0.77,0.786 -1.003,1.255 -0.236,0.469 -0.352,0.938 -0.352,1.407 0,0.769 0.277,1.447 0.827,2.033 0.553,0.585 1.247,0.878 2.084,0.878 0.636,0 1.205,-0.201 1.707,-0.601 1.272,-1.039 2.537,-1.826 3.791,-2.36 C -3.389,6.041 -1.841,5.772 0,5.772 c 1.238,0 2.376,0.193 3.414,0.579 1.037,0.384 1.874,0.904 2.51,1.556 0.636,0.652 0.954,1.397 0.954,2.234 0,1.004 -0.301,1.858 -0.904,2.561 -0.602,0.702 -1.523,1.296 -2.761,1.781 -1.238,0.486 -2.811,0.861 -4.719,1.129 -1.807,0.268 -3.397,0.679 -4.769,1.231 -1.373,0.553 -2.52,1.255 -3.44,2.108 -0.921,0.855 -1.614,1.859 -2.083,3.014 -0.469,1.154 -0.703,2.451 -0.703,3.889 0,2.176 0.561,4.034 1.682,5.573 1.122,1.54 2.635,2.712 4.544,3.515 1.908,0.803 4.015,1.205 6.325,1.205 2.176,0 4.192,-0.327 6.05,-0.979 1.857,-0.652 3.372,-1.48 4.544,-2.485 0.97,-0.77 1.456,-1.656 1.456,-2.661 0,-0.737 -0.285,-1.406 -0.854,-2.009 -0.569,-0.601 -1.238,-0.904 -2.009,-0.904 -0.501,0 -0.953,0.153 -1.355,0.453 -0.536,0.468 -1.255,0.912 -2.158,1.331 -0.905,0.418 -1.858,0.769 -2.863,1.054 -1.004,0.284 -1.941,0.426 -2.811,0.426 -1.439,0 -2.653,-0.185 -3.64,-0.552 -0.987,-0.368 -1.732,-0.871 -2.233,-1.506 -0.502,-0.637 -0.754,-1.372 -0.754,-2.209 0,-1.003 0.293,-1.832 0.879,-2.486 0.585,-0.652 1.431,-1.171 2.535,-1.556 1.104,-0.385 2.427,-0.727 3.967,-1.029 2.008,-0.368 3.773,-0.803 5.296,-1.304 1.522,-0.503 2.787,-1.148 3.791,-1.934 1.004,-0.787 1.756,-1.775 2.258,-2.963 0.502,-1.188 0.753,-2.634 0.753,-4.342 0,-2.175 -0.601,-4.05 -1.807,-5.623 C 9.891,3.296 8.309,2.09 6.351,1.255 4.393,0.418 2.275,0 0,0"
             style="fill:#ffffff;fill-opacity:1;fill-rule:nonzero;stroke:none"
             id="path80" /></g><g
           id="g82"
           transform="translate(319.9521,243.605)"><path
             d="m 0,0 c 0.836,0 1.564,-0.276 2.184,-0.829 0.619,-0.552 0.929,-1.247 0.929,-2.084 0,-0.434 -0.1,-0.885 -0.301,-1.354 L -9.589,-33.285 c -0.302,-0.671 -0.727,-1.164 -1.28,-1.481 -0.553,-0.318 -1.113,-0.477 -1.682,-0.477 -0.536,0.033 -1.053,0.207 -1.556,0.526 -0.502,0.319 -0.888,0.778 -1.155,1.381 l -12.401,29.12 c -0.1,0.2 -0.167,0.408 -0.2,0.627 -0.034,0.217 -0.051,0.426 -0.051,0.628 0,0.969 0.352,1.714 1.055,2.233 0.703,0.519 1.372,0.779 2.007,0.779 1.272,0 2.193,-0.653 2.762,-1.958 l 10.088,-23.723 9.241,23.723 C -2.192,-0.636 -1.271,0 0,0"
             style="fill:#ffffff;fill-opacity:1;fill-rule:nonzero;stroke:none"
             id="path84" /></g><g
           id="g86"
           transform="translate(236.4844,221.5059)"><path
             d="m 0,0 c -0.044,-0.036 -0.062,-0.057 -0.063,-0.058 -0.202,-0.262 -0.478,-0.731 -0.478,-1.69 0,-0.464 0.117,-0.902 0.367,-1.379 0.191,-0.36 0.549,-0.679 1.098,-0.978 0.438,-0.238 1.306,-0.521 2.97,-0.521 0.204,0 0.4,0.008 0.589,0.025 C 4.4,-4.521 4.317,-4.443 4.235,-4.363 2.76,-2.946 1.338,-1.482 0,0"
             style="fill:#a6227e;fill-opacity:1;fill-rule:nonzero;stroke:none"
             id="path88" /></g></g></g></g></svg>