<?xml version="1.0" encoding="UTF-8" standalone="no"?>
<svg
   xmlns:dc="http://purl.org/dc/elements/1.1/"
   xmlns:cc="http://creativecommons.org/ns#"
   xmlns:rdf="http://www.w3.org/1999/02/22-rdf-syntax-ns#"
   xmlns:svg="http://www.w3.org/2000/svg"
   xmlns="http://www.w3.org/2000/svg"
   xmlns:sodipodi="http://sodipodi.sourceforge.net/DTD/sodipodi-0.dtd"
   xmlns:inkscape="http://www.inkscape.org/namespaces/inkscape"
   viewBox="0 0 314.75934 454.72254"
   height="454.72253"
   width="454.72253"
   xml:space="preserve"
   id="svg2"
   version="1.1"
   sodipodi:docname="exaltio_logo_icon.svg"
   inkscape:version="0.92.5 (2060ec1f9f, 2020-04-08)"><sodipodi:namedview
     pagecolor="#ffffff"
     bordercolor="#666666"
     borderopacity="1"
     objecttolerance="10"
     gridtolerance="10"
     guidetolerance="10"
     inkscape:pageopacity="0"
     inkscape:pageshadow="2"
     inkscape:window-width="1920"
     inkscape:window-height="1029"
     id="namedview20"
     showgrid="false"
     inkscape:zoom="1.179539"
     inkscape:cx="157.38001"
     inkscape:cy="227.36186"
     inkscape:window-x="1920"
     inkscape:window-y="27"
     inkscape:window-maximized="1"
     inkscape:current-layer="svg2" /><metadata
     id="metadata8"><rdf:RDF><cc:Work
         rdf:about=""><dc:format>image/svg+xml</dc:format><dc:type
           rdf:resource="http://purl.org/dc/dcmitype/StillImage" /><dc:title /></cc:Work></rdf:RDF></metadata><defs
     id="defs6"><clipPath
       id="clipPath18"
       clipPathUnits="userSpaceOnUse"><path
         id="path16"
         d="M 0,500 H 500 V 0 H 0 Z"
         inkscape:connector-curvature="0" /></clipPath></defs><g
     transform="matrix(1.3333333,0,0,-1.3333333,-175.95333,560.69399)"
     id="g10"><g
       id="g12"><g
         clip-path="url(#clipPath18)"
         id="g14"><g
           transform="translate(199.1445,139.5996)"
           id="g20"><path
             id="path22"
             style="fill:#a6227e;fill-opacity:1;fill-rule:nonzero;stroke:none"
             d="m 0,0 c -4.337,6.612 -10.639,18.533 -14.295,28.217 -2.179,5.734 -3.915,11.686 -5.184,17.814 -1.612,7.78 -2.455,15.844 -2.455,24.109 0,3.748 0.176,7.455 0.518,11.119 1.903,3.263 3.973,6.436 6.186,9.491 11.695,16.229 27.406,29.368 45.679,37.983 5.568,2.621 11.378,4.826 17.38,6.562 -0.409,6.31 -2.12,12.271 -4.858,17.613 4.249,4.909 6.82,11.312 6.82,18.308 0,2.554 -0.342,5.025 -0.985,7.371 -0.301,1.11 -0.668,2.195 -1.102,3.247 -3.189,1.27 -6.67,1.962 -10.309,1.962 -7.939,0 -15.11,-3.315 -20.202,-8.632 -4.55,1.544 -9.433,2.379 -14.501,2.379 -2.83,0 -5.601,-0.259 -8.281,-0.76 0.318,1.553 0.76,3.047 1.311,4.491 0.592,1.169 1.152,2.363 1.678,3.574 2.997,6.811 4.967,14.174 5.751,21.887 14.484,6.32 30.478,9.818 47.291,9.818 28.016,0 53.761,-9.726 74.037,-25.987 3.064,-2.455 6.002,-5.059 8.799,-7.797 17.046,-16.679 29.076,-38.467 33.609,-62.893 1.152,-6.177 1.828,-12.53 1.969,-19.017 0.026,-0.91 0.034,-1.836 0.034,-2.755 0,-10.86 -1.461,-21.378 -4.199,-31.371 -6.695,-24.417 -20.995,-45.687 -40.212,-61.088 -2.846,-2.289 -5.81,-4.442 -8.865,-6.462 -4.725,0.96 -9.617,1.461 -14.625,1.461 -19.985,0 -38.109,-8.014 -51.306,-20.987 -1.645,-1.611 -3.206,-3.289 -4.667,-5.042 -2.17,-2.554 -4.149,-5.26 -5.944,-8.09 -5.042,-7.971 -8.59,-16.987 -10.234,-26.646 -2.313,14.275 -8.696,30.716 -14.1,39.778 C 11.522,-14.949 3.444,-5.251 0,0"
             inkscape:connector-curvature="0" /></g><g
           transform="translate(139.395,281.2549)"
           id="g24"><path
             id="path26"
             style="fill:#52c2ec;fill-opacity:1;fill-rule:nonzero;stroke:none"
             d="m 0,0 c 6.929,0.944 13.557,2.855 19.726,5.602 3.281,1.444 6.428,3.13 9.424,5.034 0.827,2.63 1.269,5.426 1.269,8.331 v 0.176 c -0.008,1.101 -0.075,2.178 -0.208,3.247 2.295,2.337 4.842,4.423 7.605,6.211 4.415,2.871 9.366,4.992 14.667,6.185 h 0.008 c 0.117,0.026 0.234,0.059 0.351,0.075 0.434,0.101 0.876,0.193 1.319,0.267 2.679,0.501 5.451,0.76 8.281,0.76 5.067,0 9.951,-0.834 14.5,-2.379 5.092,5.317 12.263,8.632 20.202,8.632 3.64,0 7.121,-0.693 10.31,-1.962 0.434,-1.052 0.801,-2.137 1.102,-3.247 0.642,-2.346 0.985,-4.817 0.985,-7.371 0,-6.997 -2.571,-13.399 -6.82,-18.308 2.737,-5.342 4.448,-11.303 4.858,-17.613 -6.002,-1.737 -11.812,-3.941 -17.38,-6.562 -18.274,-8.615 -33.985,-21.755 -45.68,-37.983 -2.212,-3.055 -4.282,-6.228 -6.186,-9.491 0,0 -0.045,-0.453 -0.076,-0.852 -0.036,-0.463 -0.112,-1.701 -0.212,-2.863 -0.576,5.351 -6.916,9.516 -12.425,9.516 -1.269,0 -2.488,-0.225 -3.623,-0.634 -2.154,-0.768 -3.982,-2.212 -5.235,-4.074 -1.127,-0.409 -2.353,-0.635 -3.622,-0.635 -2.371,0 -4.559,0.769 -6.328,2.071 -0.626,1.119 -1.236,2.246 -1.828,3.389 0,0 -0.009,0 -0.009,0.008 -0.793,1.529 -1.553,3.073 -2.279,4.634 0,0 -0.008,0 -0.008,0.008 -0.075,0.167 -0.159,0.343 -0.234,0.51 -3.974,8.672 -6.929,17.897 -8.715,27.539 -0.476,2.529 -0.868,5.092 -1.169,7.68 V -0.617 C -4.917,-0.542 -2.438,-0.333 0,0"
             inkscape:connector-curvature="0" /></g><g
           transform="translate(180.5498,288.6055)"
           id="g28"><path
             id="path30"
             style="fill:#ffffff;fill-opacity:1;fill-rule:nonzero;stroke:none"
             d="M 0,0 C 0,-0.134 0,-0.275 0.008,-0.409 0.693,0 1.394,0.376 2.112,0.727 c 1.953,-2.614 5.067,-4.308 8.582,-4.308 4.374,0 8.139,2.629 9.792,6.394 0.108,0.243 0.2,0.484 0.284,0.743 -1.461,4.157 -5.418,7.137 -10.076,7.137 C 6.036,10.693 2.07,7.713 0.609,3.556 0.209,2.445 0,1.243 0,0"
             inkscape:connector-curvature="0" /></g><g
           transform="translate(180.5498,288.6055)"
           id="g32"><path
             id="path34"
             style="fill:none;stroke:#ffffff;stroke-width:2.50399995;stroke-linecap:butt;stroke-linejoin:miter;stroke-miterlimit:10;stroke-dasharray:none;stroke-opacity:1"
             d="M 0,0 C 0,-0.134 0,-0.275 0.008,-0.409 0.693,0 1.394,0.376 2.112,0.727 c 1.953,-2.614 5.067,-4.308 8.582,-4.308 4.374,0 8.139,2.629 9.792,6.394 0.108,0.243 0.2,0.484 0.284,0.743 -1.461,4.157 -5.418,7.137 -10.076,7.137 C 6.036,10.693 2.07,7.713 0.609,3.556 0.209,2.445 0,1.243 0,0 Z"
             inkscape:connector-curvature="0" /></g><g
           transform="translate(288.1025,400.125)"
           id="g36"><path
             id="path38"
             style="fill:#52c2ec;fill-opacity:1;fill-rule:nonzero;stroke:none"
             d="m 0,0 c 0.616,0.255 1.269,-0.28 1.138,-0.935 l -3.46,-17.392 -2.787,-14.045 c -0.092,-0.463 -0.548,-0.754 -1.008,-0.645 -9.979,2.382 -20.397,3.646 -31.108,3.646 -10.71,0 -21.127,-1.256 -31.107,-3.645 -0.46,-0.11 -0.916,0.181 -1.008,0.645 l -2.787,14.044 -3.46,17.392 c -0.13,0.655 0.522,1.19 1.138,0.935 l 23.314,-9.659 c 0.426,-0.177 0.914,0.025 1.091,0.451 l 12.048,29.089 c 0.285,0.686 1.258,0.686 1.543,0 l 12.049,-29.089 c 0.176,-0.426 0.664,-0.628 1.091,-0.451 z"
             inkscape:connector-curvature="0" /></g></g></g></g></svg>