<?xml version="1.0" encoding="UTF-8" standalone="no"?>
<svg
   xmlns:dc="http://purl.org/dc/elements/1.1/"
   xmlns:cc="http://creativecommons.org/ns#"
   xmlns:rdf="http://www.w3.org/1999/02/22-rdf-syntax-ns#"
   xmlns:svg="http://www.w3.org/2000/svg"
   xmlns="http://www.w3.org/2000/svg"
   xmlns:sodipodi="http://sodipodi.sourceforge.net/DTD/sodipodi-0.dtd"
   xmlns:inkscape="http://www.inkscape.org/namespaces/inkscape"
   viewBox="0 0 494.56693 375.52387"
   height="375.52386"
   width="494.56693"
   xml:space="preserve"
   id="svg2"
   version="1.1"
   sodipodi:docname="exaltio_logo.svg"
   inkscape:version="0.92.5 (2060ec1f9f, 2020-04-08)"><sodipodi:namedview
     pagecolor="#ffffff"
     bordercolor="#666666"
     borderopacity="1"
     objecttolerance="10"
     gridtolerance="10"
     guidetolerance="10"
     inkscape:pageopacity="0"
     inkscape:pageshadow="2"
     inkscape:window-width="1920"
     inkscape:window-height="1029"
     id="namedview44"
     showgrid="false"
     inkscape:zoom="1.179539"
     inkscape:cx="247.28348"
     inkscape:cy="187.7624"
     inkscape:window-x="1920"
     inkscape:window-y="27"
     inkscape:window-maximized="1"
     inkscape:current-layer="svg2" /><metadata
     id="metadata8"><rdf:RDF><cc:Work
         rdf:about=""><dc:format>image/svg+xml</dc:format><dc:type
           rdf:resource="http://purl.org/dc/dcmitype/StillImage" /><dc:title /></cc:Work></rdf:RDF></metadata><defs
     id="defs6"><clipPath
       id="clipPath18"
       clipPathUnits="userSpaceOnUse"><path
         id="path16"
         d="M 0,500 H 500 V 0 H 0 Z"
         inkscape:connector-curvature="0" /></clipPath></defs><g
     transform="matrix(1.3333333,0,0,-1.3333333,-86.049865,521.09479)"
     id="g10"><g
       id="g12"><g
         clip-path="url(#clipPath18)"
         id="g14"><g
           transform="translate(166.6484,169.4072)"
           id="g20"><path
             id="path22"
             style="fill:#a6227e;fill-opacity:1;fill-rule:nonzero;stroke:none"
             d="m 0,0 c 0,5.987 1.277,11.244 3.797,15.625 2.523,4.389 5.902,7.826 10.041,10.211 4.136,2.382 8.592,3.59 13.245,3.59 3.644,0 7.146,-0.763 10.411,-2.27 3.161,-1.46 5.994,-3.482 8.423,-6.014 l 0.003,-0.003 c 0.388,-0.404 0.743,-0.837 1.106,-1.264 0.385,2.247 1.458,4.237 3.182,5.82 2.061,1.894 4.596,2.894 7.331,2.894 3.291,0 6.294,-1.486 8.454,-4.184 l 5.803,-7.211 5.22,6.918 c 1.656,2.234 3.852,3.688 6.306,4.23 1.268,2.655 2.427,5.37 3.456,8.151 -0.132,0.087 -1.951,1.603 -2.673,2.228 -1.039,-0.749 -2.159,-1.398 -3.341,-1.935 -2.455,-1.115 -5.295,-1.681 -8.44,-1.681 -2.936,0 -5.631,0.664 -8.011,1.97 -2.371,1.298 -4.276,3.04 -5.665,5.175 -0.662,1.018 -1.154,2.083 -1.515,3.179 -0.34,-1.001 -0.765,-1.978 -1.337,-2.907 -1.356,-2.202 -3.194,-4 -5.463,-5.342 -2.319,-1.376 -4.937,-2.075 -7.779,-2.075 -2.398,0 -4.668,0.496 -6.746,1.471 -2.153,1.012 -3.94,2.488 -5.309,4.388 -0.83,1.237 -1.233,2.47 -1.233,3.714 0,1.792 0.755,3.438 2.128,4.632 2.217,1.935 4.974,2.207 7.372,0.725 0.684,-0.424 1.321,-0.927 1.897,-1.494 0.299,-0.265 0.612,-0.47 0.861,-0.565 0.178,-0.069 0.504,-0.152 1.03,-0.152 0.414,0 0.777,0.097 1.139,0.306 0.408,0.235 0.713,0.525 0.961,0.912 0.19,0.297 0.275,0.577 0.275,0.906 v 21.087 c 0,1.816 0.704,3.422 2.034,4.647 1.255,1.153 2.803,1.763 4.477,1.763 1.843,0 3.452,-0.654 4.656,-1.892 1.179,-1.213 1.803,-2.776 1.803,-4.518 V 55.917 c 0.769,1.603 1.839,3.053 3.223,4.299 0.455,0.411 0.955,0.805 1.496,1.18 -0.478,1.188 -0.72,2.467 -0.72,3.815 0,2.268 0.618,4.41 1.837,6.365 1.194,1.914 2.89,3.475 5.039,4.637 2.129,1.15 4.623,1.734 7.415,1.734 2.741,0 5.274,-0.475 7.533,-1.41 2.542,-1.055 4.348,-2.566 5.368,-4.495 0.223,-0.385 0.365,-0.793 0.503,-1.189 0.257,-0.735 0.386,-1.552 0.386,-2.429 0,-1.532 -0.583,-2.924 -1.685,-4.025 -0.767,-0.765 -2.131,-1.68 -4.273,-1.68 -1.205,0 -2.251,0.29 -3.11,0.862 -0.579,0.386 -1.041,0.794 -1.419,1.246 -0.58,0.758 -0.971,0.972 -1.219,1.071 -0.548,0.221 -1.25,0.334 -2.084,0.334 -0.83,0 -1.045,-0.196 -1.047,-0.199 -0.192,-0.196 -0.225,-0.319 -0.225,-0.52 0,-0.321 0.155,-0.69 0.473,-1.131 0.607,-0.842 1.32,-1.654 2.122,-2.414 1.001,-0.948 1.863,-1.82 2.563,-2.592 0.46,-0.488 0.953,-1.001 1.476,-1.532 0.286,0.954 0.82,1.784 1.574,2.428 0.989,0.847 2.284,1.258 3.959,1.258 1.953,0 3.652,-0.873 4.782,-2.458 0.101,-0.14 0.168,-0.296 0.257,-0.443 0.465,3.873 0.718,7.811 0.718,11.809 0,0.759 -0.007,1.524 -0.028,2.276 -0.117,5.357 -0.675,10.602 -1.626,15.704 -3.744,20.172 -13.678,38.165 -27.755,51.939 -2.31,2.261 -4.737,4.413 -7.266,6.439 -16.746,13.43 -38.007,21.46 -61.143,21.46 -13.884,0 -27.092,-2.888 -39.053,-8.107 -0.649,-6.369 -2.275,-12.45 -4.751,-18.076 -0.433,-0.999 -0.896,-1.985 -1.385,-2.95 -0.455,-1.193 -0.82,-2.427 -1.082,-3.709 2.213,0.414 4.501,0.628 6.838,0.628 4.185,0 8.218,-0.69 11.975,-1.966 4.206,4.392 10.127,7.129 16.683,7.129 3.006,0 5.881,-0.573 8.515,-1.621 0.358,-0.868 1.722,-6.659 1.722,-8.769 0,-5.776 -2.123,-11.064 -5.631,-15.118 2.261,-4.412 3.674,-9.335 4.012,-14.546 -4.957,-1.434 -9.755,-3.254 -14.353,-5.419 -15.091,-7.113 -28.066,-17.965 -37.723,-31.367 -1.828,-2.523 -3.538,-5.142 -5.109,-7.838 -0.283,-3.027 -0.428,-6.087 -0.428,-9.183 0,-6.825 0.697,-13.485 2.027,-19.909 1.048,-5.06 2.482,-9.976 4.282,-14.711 3.019,-7.997 8.224,-17.842 11.805,-23.303 2.844,-4.337 9.515,-12.345 12.172,-16.8 4.461,-7.483 9.733,-21.061 11.643,-32.85 1.359,7.977 4.288,15.423 8.452,22.006 1.482,2.337 3.116,4.571 4.909,6.681 1.206,1.447 2.495,2.833 3.853,4.163 3.553,3.492 7.544,6.539 11.873,9.074 -1.041,1.26 -1.975,2.614 -2.777,4.076 C 1.175,-10.015 0,-5.227 0,0"
             inkscape:connector-curvature="0" /></g><g
           transform="translate(70.6724,275.8115)"
           id="g24"><path
             id="path26"
             style="fill:#52c2ec;fill-opacity:1;fill-rule:nonzero;stroke:none"
             d="m 0,0 c 5.722,0.779 11.196,2.358 16.291,4.626 2.709,1.192 5.308,2.585 7.783,4.157 0.682,2.172 1.048,4.481 1.048,6.88 v 0.145 c -0.007,0.91 -0.062,1.799 -0.173,2.682 1.896,1.93 3.999,3.654 6.28,5.129 3.647,2.371 7.735,4.122 12.113,5.108 h 0.007 c 0.096,0.021 0.193,0.048 0.29,0.062 0.358,0.083 0.723,0.159 1.089,0.221 2.212,0.413 4.501,0.627 6.839,0.627 4.184,0 8.217,-0.689 11.974,-1.965 4.206,4.392 10.127,7.128 16.684,7.128 3.005,0 5.88,-0.571 8.514,-1.619 0.358,-0.869 0.661,-1.765 0.909,-2.682 0.531,-1.937 0.814,-3.978 0.814,-6.087 0,-5.778 -2.123,-11.065 -5.632,-15.119 2.261,-4.412 3.674,-9.335 4.012,-14.546 -4.957,-1.434 -9.755,-3.254 -14.353,-5.419 -15.091,-7.114 -28.066,-17.965 -37.724,-31.367 -1.827,-2.523 -3.536,-5.143 -5.108,-7.838 0,0 -0.037,-0.374 -0.063,-0.704 -0.03,-0.382 -0.093,-1.404 -0.175,-2.364 -0.476,4.419 -5.711,7.859 -10.261,7.859 -1.049,0 -2.055,-0.186 -2.992,-0.524 -1.779,-0.634 -3.289,-1.827 -4.323,-3.364 -0.93,-0.338 -1.944,-0.524 -2.992,-0.524 -1.958,0 -3.764,0.634 -5.226,1.709 -0.517,0.924 -1.02,1.855 -1.509,2.8 0,0 -0.007,0 -0.007,0.006 -0.655,1.262 -1.282,2.537 -1.882,3.827 0,0 -0.007,0 -0.007,0.007 -0.062,0.137 -0.131,0.282 -0.193,0.42 -3.281,7.163 -5.722,14.781 -7.197,22.743 -0.393,2.089 -0.717,4.205 -0.965,6.342 V -0.51 C -4.061,-0.448 -2.013,-0.276 0,0"
             inkscape:connector-curvature="0" /></g><g
           transform="translate(104.6597,281.8813)"
           id="g28"><path
             id="path30"
             style="fill:#ffffff;fill-opacity:1;fill-rule:nonzero;stroke:none"
             d="M 0,0 C 0,-0.11 0,-0.228 0.006,-0.338 0.572,0 1.151,0.311 1.744,0.6 c 1.613,-2.158 4.185,-3.558 7.087,-3.558 3.612,0 6.721,2.172 8.086,5.281 0.09,0.2 0.166,0.4 0.235,0.614 C 15.945,6.37 12.678,8.831 8.831,8.831 4.984,8.831 1.709,6.37 0.503,2.937 0.172,2.02 0,1.027 0,0"
             inkscape:connector-curvature="0" /></g><g
           transform="translate(193.4795,373.9771)"
           id="g32"><path
             id="path34"
             style="fill:#52c2ec;fill-opacity:1;fill-rule:nonzero;stroke:none"
             d="m 0,0 c 0.509,0.211 1.047,-0.231 0.94,-0.771 l -2.857,-14.364 -2.302,-11.598 c -0.076,-0.383 -0.453,-0.623 -0.832,-0.533 -8.242,1.967 -16.845,3.011 -25.69,3.011 -8.844,0 -17.448,-1.037 -25.689,-3.01 -0.38,-0.09 -0.757,0.15 -0.833,0.533 l -2.301,11.597 -2.858,14.364 c -0.107,0.54 0.431,0.982 0.94,0.771 l 19.253,-7.977 c 0.352,-0.146 0.755,0.021 0.901,0.373 l 9.95,24.022 c 0.235,0.568 1.039,0.568 1.274,0 l 9.95,-24.022 c 0.146,-0.352 0.549,-0.519 0.901,-0.373 z"
             inkscape:connector-curvature="0" /></g><g
           transform="translate(294.0972,162.8813)"
           id="g36"><path
             id="path38"
             style="fill:#000000;fill-opacity:1;fill-rule:nonzero;stroke:none"
             d="m 0,0 c -1.032,-2.121 -2.468,-3.794 -4.309,-5.02 -1.841,-1.229 -3.989,-1.841 -6.443,-1.841 -2.398,0 -4.519,0.612 -6.359,1.841 -1.841,1.226 -3.278,2.899 -4.309,5.02 -1.034,2.119 -1.548,4.49 -1.548,7.111 0,2.68 0.514,5.077 1.548,7.197 1.031,2.119 2.468,3.793 4.309,5.021 1.84,1.226 3.961,1.84 6.359,1.84 2.454,0 4.602,-0.614 6.443,-1.84 C -2.468,18.101 -1.032,16.427 0,14.308 1.032,12.188 1.548,9.791 1.548,7.111 1.548,4.49 1.032,2.119 0,0 M 6.15,30.374 C 4.7,30.374 3.5,29.885 2.552,28.91 1.603,27.932 1.13,26.72 1.13,25.27 v -0.124 c -0.493,0.462 -1.026,0.922 -1.631,1.379 -1.479,1.114 -3.223,2.035 -5.23,2.761 -2.009,0.724 -4.212,1.088 -6.611,1.088 -3.738,0 -7.141,-0.991 -10.208,-2.97 -3.069,-1.982 -5.509,-4.715 -7.322,-8.2 -1.813,-3.488 -2.72,-7.518 -2.72,-12.093 0,-4.517 0.907,-8.521 2.72,-12.006 1.813,-3.486 4.281,-6.221 7.406,-8.2 3.123,-1.981 6.61,-2.97 10.46,-2.97 2.119,0 4.085,0.349 5.898,1.046 1.813,0.696 3.388,1.547 4.728,2.552 0.994,0.745 1.831,1.497 2.517,2.258 0.019,-1.413 0.485,-2.601 1.415,-3.556 0.948,-0.976 2.148,-1.464 3.598,-1.464 1.451,0 2.649,0.488 3.599,1.464 0.947,0.975 1.422,2.189 1.422,3.64 V 25.27 c 0,1.506 -0.475,2.731 -1.422,3.681 -0.95,0.948 -2.148,1.423 -3.599,1.423"
             inkscape:connector-curvature="0" /></g><g
           transform="translate(322.0854,209.5723)"
           id="g40"><path
             id="path42"
             style="fill:#000000;fill-opacity:1;fill-rule:nonzero;stroke:none"
             d="m 0,0 c -1.452,0 -2.666,-0.489 -3.641,-1.465 -0.976,-0.977 -1.463,-2.19 -1.463,-3.639 v -51.711 c 0,-1.452 0.474,-2.665 1.421,-3.641 0.948,-0.976 2.121,-1.464 3.516,-1.464 1.45,0 2.662,0.488 3.64,1.464 0.975,0.976 1.464,2.189 1.464,3.641 v 51.711 c 0,1.449 -0.46,2.662 -1.381,3.639 C 2.635,-0.489 1.449,0 0,0"
             inkscape:connector-curvature="0" /></g><g
           transform="translate(358.8184,182.3779)"
           id="g44"><path
             id="path46"
             style="fill:#000000;fill-opacity:1;fill-rule:nonzero;stroke:none"
             d="M 0,0 C 1.339,0 2.453,0.43 3.346,1.296 4.238,2.16 4.685,3.234 4.685,4.518 4.685,5.856 4.238,6.972 3.346,7.865 2.453,8.757 1.339,9.204 0,9.204 h -5.942 v 5.355 c 0,1.45 -0.46,2.664 -1.38,3.64 -0.92,0.975 -2.106,1.464 -3.557,1.464 -1.45,0 -2.663,-0.489 -3.639,-1.464 -0.976,-0.976 -1.465,-2.19 -1.465,-3.64 V 9.204 h -3.849 c -1.338,0 -2.456,-0.433 -3.346,-1.297 -0.893,-0.866 -1.339,-1.939 -1.339,-3.222 0,-1.339 0.446,-2.456 1.339,-3.346 C -22.288,0.445 -21.17,0 -19.832,0 h 3.849 v -23.095 c 0,-2.733 0.419,-4.881 1.255,-6.443 0.837,-1.562 1.883,-2.72 3.138,-3.472 1.256,-0.753 2.595,-1.228 4.016,-1.423 1.424,-0.196 2.72,-0.293 3.891,-0.293 1.952,0 3.78,0.503 5.481,1.507 1.701,1.004 2.552,2.286 2.552,3.848 0,1.284 -0.322,2.287 -0.962,3.013 -0.642,0.725 -1.353,1.088 -2.134,1.088 -0.726,0 -1.367,-0.125 -1.924,-0.377 -0.559,-0.251 -1.171,-0.376 -1.841,-0.376 -0.614,0 -1.185,0.11 -1.715,0.335 -0.531,0.222 -0.949,0.585 -1.255,1.087 -0.307,0.502 -0.461,1.143 -0.461,1.924 V 0 Z"
             inkscape:connector-curvature="0" /></g><g
           transform="translate(377.1426,207.814)"
           id="g48"><path
             id="path50"
             style="fill:#000000;fill-opacity:1;fill-rule:nonzero;stroke:none"
             d="M 0,0 C -1.785,0 -3.11,-0.292 -3.974,-0.878 -4.84,-1.464 -5.272,-2.566 -5.272,-4.184 v -1.589 c 0,-1.562 0.39,-2.65 1.171,-3.263 0.781,-0.614 2.121,-0.921 4.017,-0.921 1.896,0 3.264,0.293 4.1,0.879 0.837,0.585 1.256,1.687 1.256,3.305 v 1.589 c 0,1.562 -0.391,2.649 -1.173,3.265 C 3.317,-0.306 1.952,0 0,0"
             inkscape:connector-curvature="0" /></g><g
           transform="translate(377.1426,192.418)"
           id="g52"><path
             id="path54"
             style="fill:#000000;fill-opacity:1;fill-rule:nonzero;stroke:none"
             d="M 0,0 C -1.452,0 -2.65,-0.489 -3.598,-1.464 -4.547,-2.44 -5.02,-3.654 -5.02,-5.103 v -34.558 c 0,-1.452 0.473,-2.665 1.422,-3.641 0.948,-0.976 2.146,-1.464 3.598,-1.464 1.451,0 2.649,0.488 3.598,1.464 0.948,0.976 1.422,2.189 1.422,3.641 v 34.558 c 0,1.449 -0.474,2.663 -1.422,3.639 C 2.649,-0.489 1.451,0 0,0"
             inkscape:connector-curvature="0" /></g><g
           transform="translate(423.7056,162.6714)"
           id="g56"><path
             id="path58"
             style="fill:#000000;fill-opacity:1;fill-rule:nonzero;stroke:none"
             d="m 0,0 c -1.144,-2.092 -2.677,-3.724 -4.602,-4.895 -1.924,-1.171 -4.058,-1.756 -6.4,-1.756 -2.343,0 -4.477,0.585 -6.401,1.756 -1.925,1.171 -3.46,2.803 -4.602,4.895 -1.144,2.092 -1.716,4.532 -1.716,7.321 0,2.846 0.572,5.315 1.716,7.407 1.142,2.091 2.677,3.723 4.602,4.894 1.924,1.171 4.058,1.757 6.401,1.757 2.342,0 4.476,-0.586 6.4,-1.757 C -2.677,18.451 -1.144,16.819 0,14.728 1.143,12.636 1.716,10.167 1.716,7.321 1.716,4.532 1.143,2.092 0,0 m 8.703,19.414 c -2.036,3.485 -4.769,6.218 -8.2,8.2 -3.431,1.979 -7.267,2.97 -11.505,2.97 -4.24,0 -8.075,-0.991 -11.506,-2.97 -3.43,-1.982 -6.164,-4.715 -8.2,-8.2 -2.037,-3.488 -3.055,-7.518 -3.055,-12.093 0,-4.574 1.018,-8.604 3.055,-12.091 2.036,-3.486 4.77,-6.206 8.2,-8.157 3.431,-1.953 7.266,-2.928 11.506,-2.928 4.238,0 8.074,0.975 11.505,2.928 3.431,1.951 6.164,4.671 8.2,8.157 2.036,3.487 3.054,7.517 3.054,12.091 0,4.575 -1.018,8.605 -3.054,12.093"
             inkscape:connector-curvature="0" /></g><g
           transform="translate(209.2021,207.8599)"
           id="g60"><path
             id="path62"
             style="fill:#000000;fill-opacity:1;fill-rule:nonzero;stroke:none"
             d="m 0,0 c -1.908,0 -3.683,0.384 -5.322,1.154 -1.64,0.77 -2.979,1.874 -4.016,3.314 -0.402,0.602 -0.602,1.187 -0.602,1.757 0,0.837 0.325,1.54 0.978,2.108 0.652,0.569 1.297,0.854 1.933,0.854 0.502,0 0.995,-0.151 1.481,-0.452 0.485,-0.3 0.928,-0.653 1.331,-1.054 C -3.548,7.078 -2.887,6.652 -2.234,6.4 -1.582,6.15 -0.838,6.024 0,6.024 c 1.004,0 1.94,0.252 2.811,0.753 0.87,0.502 1.573,1.171 2.109,2.009 0.535,0.835 0.803,1.739 0.803,2.71 v 21.087 c 0,0.869 0.318,1.598 0.954,2.183 0.635,0.585 1.372,0.88 2.209,0.88 0.937,0 1.689,-0.295 2.259,-0.88 0.568,-0.585 0.854,-1.314 0.854,-2.183 V 11.496 C 11.999,9.455 11.462,7.563 10.392,5.823 9.32,4.083 7.882,2.677 6.074,1.607 4.267,0.535 2.241,0 0,0"
             inkscape:connector-curvature="0" /></g><g
           transform="translate(204.1904,174.9297)"
           id="g64"><path
             id="path66"
             style="fill:#000000;fill-opacity:1;fill-rule:nonzero;stroke:none"
             d="m 0,0 h -21.912 c 0.135,0.687 0.291,1.341 0.492,1.926 0.613,1.784 1.449,3.206 2.51,4.266 1.059,1.06 2.314,1.813 3.765,2.26 1.45,0.445 3.013,0.669 4.686,0.669 1.729,0 3.36,-0.376 4.896,-1.129 C -4.03,7.238 -2.747,6.22 -1.715,4.937 -0.684,3.654 -0.112,2.204 0,0.587 Z m 9.121,-7.112 c 1.004,0.837 1.534,1.925 1.59,3.263 0,3.013 -0.573,5.858 -1.716,8.536 -1.144,2.677 -2.691,5.033 -4.644,7.07 -1.953,2.035 -4.197,3.639 -6.736,4.812 -2.538,1.171 -5.23,1.757 -8.074,1.757 -3.682,0 -7.168,-0.95 -10.46,-2.846 -3.291,-1.897 -5.954,-4.616 -7.99,-8.158 -2.038,-3.543 -3.055,-7.823 -3.055,-12.844 0,-4.296 0.934,-8.145 2.804,-11.546 0.829,-1.512 1.844,-2.859 2.993,-4.09 1.439,-1.541 3.101,-2.885 5.04,-3.985 3.485,-1.982 7.599,-2.971 12.341,-2.971 2.789,0 5.494,0.461 8.117,1.38 2.622,0.921 4.656,1.994 6.108,3.222 1.561,1.226 2.343,2.594 2.343,4.099 0,1.116 -0.405,2.093 -1.213,2.93 -0.196,0.203 -0.406,0.379 -0.627,0.532 -0.691,0.481 -1.499,0.722 -2.427,0.722 -0.646,0 -1.321,-0.135 -2.025,-0.397 -0.269,-0.101 -0.542,-0.216 -0.82,-0.356 -0.614,-0.333 -1.297,-0.739 -2.05,-1.212 -0.753,-0.475 -1.745,-0.88 -2.97,-1.213 -1.229,-0.335 -2.874,-0.503 -4.937,-0.503 -2.165,0 -4.21,0.522 -6.137,1.546 -0.059,0.032 -0.121,0.053 -0.181,0.086 -1.98,1.088 -3.598,2.677 -4.853,4.769 -0.731,1.218 -1.223,2.612 -1.528,4.141 H 5.606 c 1.339,0 2.511,0.42 3.515,1.256"
             inkscape:connector-curvature="0" /></g><g
           transform="translate(256.2349,155.6016)"
           id="g68"><path
             id="path70"
             style="fill:#000000;fill-opacity:1;fill-rule:nonzero;stroke:none"
             d="m 0,0 -12.046,14.968 11.544,14.066 c 0.446,0.503 0.752,1.033 0.92,1.591 0.168,0.557 0.251,1.115 0.251,1.674 0,1.171 -0.459,2.217 -1.38,3.138 -0.92,0.919 -2.051,1.379 -3.39,1.379 -1.562,0 -2.9,-0.753 -4.016,-2.258 l -9.531,-12.631 -0.763,0.948 -9.536,11.849 c -1.117,1.395 -2.483,2.092 -4.101,2.092 -1.339,0 -2.524,-0.474 -3.556,-1.421 -1.032,-0.95 -1.547,-2.148 -1.547,-3.599 0,-1.116 0.362,-2.12 1.087,-3.012 l 10.866,-13.501 1.19,-1.479 -11.637,-14.222 c -0.837,-1.005 -1.255,-2.064 -1.255,-3.18 0,-1.228 0.543,-2.275 1.631,-3.138 1.088,-0.866 2.189,-1.296 3.306,-1.296 1.616,0 2.955,0.696 4.016,2.092 L -18.119,6.487 -8.117,-5.94 c 1.116,-1.452 2.482,-2.177 4.101,-2.177 1.283,0 2.454,0.503 3.514,1.507 1.059,1.003 1.59,2.203 1.59,3.598 C 1.088,-1.897 0.725,-0.893 0,0"
             inkscape:connector-curvature="0" /></g><g
           transform="translate(244.6206,214.6113)"
           id="g72"><path
             id="path74"
             style="fill:#000000;fill-opacity:1;fill-rule:nonzero;stroke:none"
             d="m 0,0 c -1.255,-0.719 -2.669,-1.079 -4.242,-1.079 -1.908,0 -3.431,0.309 -4.569,0.929 -1.138,0.619 -1.958,1.405 -2.46,2.359 -0.502,0.955 -0.753,1.934 -0.753,2.937 0,1.473 0.393,2.72 1.18,3.741 0.659,0.856 1.874,1.527 3.629,2.019 0.298,-0.338 0.602,-0.683 0.914,-1.04 1.473,-1.674 3.046,-3.314 4.719,-4.921 1.14,-1.094 2.36,-2.226 3.648,-3.39 C 1.435,0.957 0.751,0.431 0,0 m 14.359,-2.334 c -0.218,0.402 -0.545,0.803 -0.979,1.205 -0.704,0.67 -1.615,1.515 -2.736,2.536 -0.38,0.345 -0.785,0.714 -1.186,1.078 0.185,0.355 0.369,0.712 0.532,1.081 0.854,1.923 1.431,3.89 1.733,5.898 0.133,0.936 -0.05,1.757 -0.553,2.459 -0.502,0.703 -1.188,1.056 -2.058,1.056 -0.837,0 -1.431,-0.152 -1.782,-0.452 C 6.979,12.226 6.77,11.806 6.702,11.271 6.501,9.765 6.107,8.284 5.522,6.828 5.451,6.649 5.368,6.479 5.292,6.305 4.562,6.989 3.836,7.681 3.113,8.385 1.824,9.641 0.661,10.82 -0.376,11.923 c -0.637,0.703 -1.431,1.507 -2.385,2.411 -0.954,0.904 -1.8,1.865 -2.535,2.886 -0.738,1.022 -1.105,2.051 -1.105,3.089 0,1.103 0.393,2.058 1.18,2.861 0.786,0.803 1.932,1.205 3.439,1.205 1.271,0 2.385,-0.193 3.338,-0.577 0.954,-0.385 1.799,-1.064 2.536,-2.033 0.167,-0.201 0.402,-0.402 0.702,-0.603 0.302,-0.201 0.72,-0.301 1.255,-0.301 0.804,0 1.439,0.234 1.909,0.703 0.468,0.468 0.702,1.02 0.702,1.656 0,0.503 -0.067,0.946 -0.201,1.33 -0.134,0.386 -0.217,0.595 -0.251,0.628 -0.635,1.273 -1.882,2.292 -3.74,3.062 -1.857,0.77 -3.941,1.156 -6.25,1.156 -2.243,0 -4.185,-0.445 -5.824,-1.331 -1.641,-0.887 -2.904,-2.043 -3.79,-3.464 -0.888,-1.424 -1.331,-2.954 -1.331,-4.594 0,-1.239 0.293,-2.368 0.879,-3.388 0.315,-0.551 0.691,-1.109 1.119,-1.675 -1.538,-0.68 -2.842,-1.481 -3.88,-2.417 -1.189,-1.072 -2.076,-2.301 -2.662,-3.691 -0.586,-1.389 -0.878,-2.92 -0.878,-4.593 0,-1.908 0.543,-3.699 1.631,-5.372 1.088,-1.674 2.578,-3.03 4.469,-4.066 1.89,-1.038 4.024,-1.556 6.401,-1.556 2.677,0 5.028,0.459 7.054,1.379 1.836,0.835 3.411,1.945 4.753,3.304 1.37,-1.197 2.817,-2.453 4.359,-3.78 0.167,-0.135 0.393,-0.251 0.678,-0.353 0.283,-0.099 0.627,-0.15 1.029,-0.15 0.87,0 1.497,0.319 1.882,0.955 0.385,0.635 0.578,1.171 0.578,1.606 0,0.569 -0.109,1.054 -0.326,1.456"
             inkscape:connector-curvature="0" /></g><g
           transform="translate(275.6221,207.8599)"
           id="g76"><path
             id="path78"
             style="fill:#000000;fill-opacity:1;fill-rule:nonzero;stroke:none"
             d="m 0,0 c -2.344,0 -4.452,0.293 -6.325,0.878 -1.876,0.585 -3.666,1.615 -5.373,3.087 -0.435,0.369 -0.77,0.786 -1.004,1.255 -0.234,0.469 -0.351,0.938 -0.351,1.407 0,0.769 0.276,1.447 0.828,2.033 0.552,0.585 1.247,0.878 2.083,0.878 0.636,0 1.206,-0.201 1.707,-0.601 1.272,-1.039 2.536,-1.826 3.791,-2.36 C -3.389,6.041 -1.841,5.772 0,5.772 c 1.238,0 2.376,0.193 3.414,0.579 1.037,0.384 1.874,0.904 2.51,1.556 0.636,0.652 0.954,1.397 0.954,2.234 0,1.004 -0.301,1.858 -0.904,2.561 -0.602,0.702 -1.523,1.296 -2.761,1.781 -1.239,0.486 -2.811,0.861 -4.719,1.129 -1.807,0.268 -3.398,0.679 -4.769,1.231 -1.373,0.553 -2.52,1.255 -3.44,2.108 -0.921,0.855 -1.615,1.859 -2.083,3.014 -0.469,1.154 -0.703,2.451 -0.703,3.889 0,2.176 0.56,4.034 1.682,5.573 1.121,1.54 2.635,2.712 4.544,3.515 1.907,0.803 4.016,1.205 6.325,1.205 2.176,0 4.193,-0.327 6.05,-0.979 1.858,-0.652 3.372,-1.48 4.543,-2.485 0.971,-0.77 1.456,-1.656 1.456,-2.661 0,-0.737 -0.284,-1.406 -0.853,-2.009 -0.569,-0.601 -1.239,-0.904 -2.008,-0.904 -0.502,0 -0.954,0.153 -1.356,0.453 -0.536,0.468 -1.255,0.912 -2.159,1.331 -0.904,0.418 -1.857,0.769 -2.861,1.054 -1.005,0.284 -1.942,0.426 -2.812,0.426 -1.439,0 -2.653,-0.185 -3.64,-0.552 -0.988,-0.368 -1.732,-0.871 -2.234,-1.506 -0.501,-0.637 -0.753,-1.372 -0.753,-2.209 0,-1.003 0.292,-1.832 0.879,-2.486 0.585,-0.652 1.431,-1.171 2.535,-1.556 1.105,-0.385 2.427,-0.727 3.966,-1.029 2.009,-0.368 3.774,-0.803 5.297,-1.304 1.522,-0.503 2.786,-1.148 3.791,-1.934 1.003,-0.787 1.756,-1.775 2.258,-2.963 0.503,-1.188 0.754,-2.634 0.754,-4.342 0,-2.175 -0.603,-4.05 -1.808,-5.623 C 9.891,3.296 8.309,2.09 6.351,1.255 4.393,0.418 2.276,0 0,0"
             inkscape:connector-curvature="0" /></g><g
           transform="translate(319.9526,243.605)"
           id="g80"><path
             id="path82"
             style="fill:#000000;fill-opacity:1;fill-rule:nonzero;stroke:none"
             d="m 0,0 c 0.836,0 1.564,-0.276 2.183,-0.829 0.62,-0.552 0.929,-1.247 0.929,-2.084 0,-0.434 -0.1,-0.885 -0.301,-1.354 l -12.4,-29.018 c -0.302,-0.671 -0.728,-1.164 -1.281,-1.481 -0.552,-0.318 -1.112,-0.477 -1.681,-0.477 -0.536,0.033 -1.054,0.207 -1.557,0.526 -0.502,0.319 -0.887,0.778 -1.155,1.381 l -12.401,29.12 c -0.099,0.2 -0.167,0.408 -0.2,0.627 -0.034,0.217 -0.05,0.426 -0.05,0.628 0,0.969 0.351,1.714 1.054,2.233 0.703,0.519 1.372,0.779 2.008,0.779 1.272,0 2.192,-0.653 2.762,-1.958 l 10.088,-23.723 9.241,23.723 C -2.192,-0.636 -1.272,0 0,0"
             inkscape:connector-curvature="0" /></g><g
           transform="translate(236.4844,221.5059)"
           id="g84"><path
             id="path86"
             style="fill:#a6227e;fill-opacity:1;fill-rule:nonzero;stroke:none"
             d="m 0,0 c -0.044,-0.036 -0.062,-0.057 -0.063,-0.058 -0.202,-0.262 -0.479,-0.731 -0.479,-1.69 0,-0.464 0.118,-0.902 0.369,-1.379 0.19,-0.36 0.548,-0.679 1.097,-0.978 0.438,-0.238 1.307,-0.521 2.97,-0.521 0.204,0 0.4,0.008 0.589,0.025 C 4.4,-4.521 4.317,-4.443 4.235,-4.363 2.759,-2.946 1.338,-1.482 0,0"
             inkscape:connector-curvature="0" /></g></g></g></g></svg>